<svg preserveAspectRatio="none" width="109.82" height="82.38" overflow="visible" style="display: block;" viewBox="0 0 109.82 82.38" fill="none" xmlns="http://www.w3.org/2000/svg">
<g id="Camada_1" clip-path="url(#clip0_0_4)">
<path id="Vector" fill-rule="evenodd" clip-rule="evenodd" d="M57.79 61.9L57.91 61.78H61.68L61.79 61.9V66.86L61.91 66.97H67.68L67.79 66.86V61.91L67.91 61.79H71.68L71.8 61.91V75.4L71.68 75.52H67.91L67.79 75.4V70.44L67.68 70.32H61.91L61.79 70.44V75.4L61.68 75.52H57.91L57.79 75.4V61.91V61.9ZM23.13 75.33C23.13 75.33 23.06 75.33 23.03 75.32C23.03 75.32 22.94 75.31 22.9 75.3H22.87L22.81 75.28H22.78L22.75 75.27C22.75 75.27 22.69 75.26 22.66 75.25H22.63H22.6L22.57 75.24H22.54H22.51L22.48 75.23H22.45L22.42 75.22H22.39H22.36L22.33 75.21H22.3L22.27 75.2H22.24L22.21 75.19H22.18L22.15 75.18H22.12L22.09 75.17H22.06L22.03 75.16H22L21.97 75.15H21.94L21.91 75.14H21.88L21.85 75.12H21.82L21.79 75.1H21.76L21.73 75.08H21.7L21.67 75.06H21.64L21.61 75.04H21.58L21.55 75.02H21.53L21.51 75H21.49L21.47 74.98H21.45L21.43 74.96H21.41L21.39 74.94H21.37L21.35 74.92H21.33L21.31 74.9H21.29L21.27 74.88H21.25L21.23 74.86H21.21L21.19 74.84H21.17L21.15 74.82H21.13L21.11 74.8H21.09L21.07 74.78H21.05L21.03 74.76H21.01L20.99 74.74H20.97L20.95 74.72H20.93L20.91 74.7H20.89L20.87 74.68H20.85L20.83 74.66H20.81L20.79 74.64H20.77L20.75 74.62H20.73L20.69 74.59H20.67L20.65 74.57C20.53 74.52 20.41 74.46 20.29 74.4C20.2 74.36 20.12 74.31 20.03 74.26C20 74.24 19.97 74.23 19.94 74.21H19.92L19.9 74.19H19.88L19.86 74.17L19.84 74.16H19.82L19.8 74.14H19.78L19.76 74.12H19.74L19.72 74.1L19.7 74.09H19.68L19.66 74.07H19.64L19.62 74.05H19.6L19.58 74.03H19.56L19.54 74.01H19.53L19.52 73.99H19.51L19.5 73.97H19.49L19.48 73.95H19.47L19.46 73.93H19.45L19.44 73.9H19.43L19.42 73.87H19.41L19.4 73.84H19.39L19.38 73.81H19.37L19.36 73.78H19.35L19.34 73.75H19.33L19.32 73.72H19.31L19.3 73.69H19.29C19.03 73.38 18.82 73.1 18.66 72.84V72.82V72.8V72.77V72.74V72.71V72.68V72.65V72.62V72.59V72.56V72.53V72.5V72.47V72.44V72.41V72.38V72.35V72.34V72.33V72.32V72.3L18.65 72.29V72.26V72.24V72.22V72.2V72.18V72.16V72.14V72.12V72.1V72.08V72.06V72.04V72.02V72V71.98V71.96V71.94V71.92V71.9V71.88V71.86V71.84V71.82V71.8C18.57 71.44 18.52 71.12 18.5 70.85C18.48 70.58 18.47 70.26 18.47 69.89V61.78L18.59 61.67H22.36L22.48 61.78V69.39C22.48 70.37 22.7 71.07 23.14 71.48C23.58 71.89 24.5 72.1 25.92 72.1H26.05H26.11H26.17H26.23H26.29H26.35H26.41H26.47H26.53H26.59H26.65H26.71H26.77H26.83H26.88H26.93H26.98L27.03 72.09H27.08L27.13 72.08H27.18L27.23 72.07H27.28L27.33 72.06H27.38L27.43 72.05H27.48L27.53 72.03H27.58L27.62 72.01H27.66L27.7 71.99H27.74L27.78 71.97H27.82L27.86 71.95H27.9L27.94 71.93H27.98L28.02 71.91H28.06L28.1 71.89L28.14 71.88H28.17L28.2 71.85C28.2 71.85 28.29 71.81 28.33 71.79C28.47 71.72 28.6 71.64 28.69 71.56C28.77 71.49 28.84 71.41 28.9 71.33L28.92 71.31C28.92 71.31 28.94 71.28 28.95 71.26C28.95 71.26 28.97 71.23 28.98 71.21L29 71.18C29 71.18 29.01 71.16 29.02 71.15V71.12L29.05 71.09V71.06L29.08 71.03V71L29.11 70.97V70.94L29.14 70.91V70.88L29.16 70.85V70.82L29.18 70.79V70.76L29.2 70.73V70.7L29.22 70.67V70.64L29.24 70.61V70.57L29.26 70.53V70.49L29.28 70.45V70.41L29.29 70.37V70.33L29.3 70.29V70.25L29.31 70.21V70.17L29.32 70.13V70.09V70.05V70.01V69.97V69.93V69.89V69.85V69.81V69.77V69.73V69.68V69.63V69.58V69.53V69.48V69.43V61.82L29.44 61.71H33.21L33.33 61.82V69.93C33.33 70.36 33.31 70.73 33.28 71.03C33.25 71.33 33.17 71.69 33.07 72.1C32.96 72.51 32.79 72.85 32.58 73.14C32.37 73.43 32.06 73.73 31.66 74.04H31.64L31.62 74.07H31.6L31.58 74.1H31.56L31.54 74.13H31.52L31.5 74.16H31.48C31.48 74.16 31.43 74.21 31.4 74.23L31.36 74.26C31.36 74.26 31.3 74.29 31.28 74.31C31.25 74.33 31.21 74.35 31.17 74.37C31.15 74.38 31.13 74.39 31.1 74.41C31.07 74.43 31.04 74.44 31.01 74.46L30.97 74.48H30.95L30.93 74.5H30.91L30.86 74.53L30.81 74.55H30.79V74.56H30.77L30.75 74.58H30.73L30.71 74.6H30.69L30.67 74.62H30.65L30.63 74.64H30.61H30.59H30.57L30.55 74.66H30.53C30.53 74.66 30.43 74.71 30.38 74.72H30.35C30.35 74.72 30.3 74.75 30.27 74.75C30.22 74.77 30.16 74.78 30.11 74.8H30.08L30.05 74.82H30.02H29.99H29.96L29.93 74.84L29.87 74.86C29.49 74.96 29.06 75.06 28.57 75.14H28.49L28.41 75.16H28.37L28.33 75.17H28.29L28.25 75.18H28.21L28.17 75.19H28.13L28.09 75.2H28.05L28.01 75.21H27.97L27.93 75.22H27.89L27.85 75.23H27.81H27.77H27.74H27.71H27.68H27.65H27.62H27.59H27.56H27.53H27.5H27.47H27.44H27.41H27.38H27.35H27.32H27.29H27.26H27.2C26.83 75.27 26.44 75.29 25.84 75.29H25.82C25.29 75.29 25.02 75.28 24.75 75.25H24.73H24.68H24.66H24.64H24.62H24.6H24.58H24.56H24.54H24.52H24.5H24.47H24.44H24.41H24.38H24.35H24.32H24.29H24.26H24.23H24.2H24.17H24.14H24.11H24.08H24.05H24.01H23.97H23.93H23.89H23.85H23.81H23.78H23.75H23.72H23.69H23.66H23.63H23.6H23.57L23.13 75.33ZM42.26 66.47C42.26 66.47 42.23 66.51 42.21 66.54L42.26 66.47ZM42.33 66.37C42.33 66.37 42.3 66.41 42.28 66.43L42.33 66.37ZM42.72 75.32C42.5 75.29 42.28 75.25 42.07 75.21C41.8 75.16 41.54 75.1 41.29 75.03H41.25L41.21 75.01L41.17 75L41.13 74.99H41.09L41.05 74.97H41.01L40.97 74.94H40.93L40.89 74.91H40.85L40.81 74.88H40.77L40.73 74.85H40.69L40.65 74.82H40.61L40.57 74.79H40.53L40.49 74.76H40.45L40.41 74.73H40.37L40.33 74.7H40.29L40.25 74.67H40.21L40.17 74.64C40.15 74.64 40.12 74.62 40.1 74.61L40.07 74.59L40.04 74.57L40.01 74.55L39.98 74.53L39.95 74.51L39.92 74.49L39.89 74.47L39.86 74.45L39.83 74.43L39.8 74.41L39.77 74.39L39.74 74.37L39.71 74.35L39.68 74.33L39.65 74.31L39.62 74.29L39.59 74.27C38.94 73.9 38.41 73.43 38.01 72.85L37.99 72.82L37.97 72.79L37.95 72.76L37.93 72.73L37.91 72.7L37.89 72.67L37.87 72.64L37.85 72.61L37.83 72.58L37.81 72.55L37.79 72.52L37.77 72.49L37.75 72.46L37.73 72.43L37.71 72.4L37.69 72.37L37.67 72.34L37.65 72.31L37.63 72.28V72.25L37.6 72.22V72.19L37.57 72.16V72.13L37.54 72.1V72.07L37.51 72.04V72.01H37.5V71.98L37.47 71.95V71.92H37.46V71.89L37.43 71.86V71.83L37.41 71.8V71.77H37.4V71.74L37.38 71.71V71.68H37.37V71.65L37.35 71.62V71.59L37.33 71.56V71.53L37.31 71.5V71.47L37.29 71.44V71.41L37.27 71.38V71.35L37.25 71.32V71.29L37.23 71.26V71.23V71.2L37.21 71.17V71.14L37.19 71.11V71.08L37.17 71.05V71.02L37.16 70.99V70.96L37.15 70.93C37 70.25 36.92 69.45 36.92 68.54C36.92 68.5 36.92 68.47 36.92 68.43C36.92 68.39 36.92 68.36 36.92 68.32C36.92 68.28 36.92 68.25 36.92 68.21C36.92 68.17 36.92 68.14 36.92 68.1C36.92 68.06 36.92 68.03 36.92 67.99C36.92 67.95 36.92 67.92 36.92 67.88C36.92 67.84 36.92 67.81 36.92 67.78C36.92 67.75 36.92 67.71 36.92 67.68C36.92 67.65 36.92 67.61 36.92 67.58C36.92 67.55 36.92 67.51 36.93 67.48C36.93 67.45 36.93 67.41 36.94 67.38C36.94 67.35 36.94 67.31 36.95 67.28C36.95 67.25 36.95 67.21 36.96 67.18C36.96 67.15 36.96 67.11 36.98 67.08C37 67.05 36.99 67.01 37 66.98C37 66.95 37.01 66.92 37.02 66.88C37.02 66.85 37.03 66.82 37.04 66.78C37.04 66.75 37.05 66.72 37.06 66.69C37.06 66.66 37.07 66.63 37.08 66.6C37.08 66.57 37.09 66.54 37.1 66.51C37.1 66.48 37.12 66.45 37.12 66.42C37.12 66.39 37.14 66.36 37.14 66.33C37.14 66.3 37.16 66.27 37.17 66.24C37.17 66.21 37.19 66.18 37.2 66.15C37.2 66.12 37.22 66.09 37.23 66.06C37.23 66.03 37.25 66 37.26 65.97C37.26 65.94 37.28 65.91 37.29 65.88C37.3 65.85 37.31 65.82 37.32 65.79C37.33 65.76 37.34 65.73 37.35 65.71C37.36 65.68 37.37 65.65 37.38 65.63C37.39 65.6 37.4 65.57 37.41 65.55C37.41 65.55 37.43 65.5 37.45 65.47C37.46 65.44 37.47 65.42 37.49 65.39C37.5 65.36 37.52 65.34 37.53 65.31C37.54 65.28 37.56 65.26 37.57 65.23C37.58 65.2 37.6 65.18 37.61 65.15C37.61 65.15 37.64 65.1 37.65 65.07C37.66 65.04 37.68 65.02 37.69 64.99C37.7 64.96 37.72 64.94 37.73 64.91C37.74 64.89 37.76 64.86 37.78 64.84C37.79 64.82 37.81 64.79 37.83 64.77C37.85 64.75 37.86 64.72 37.88 64.7C37.9 64.68 37.91 64.65 37.93 64.63C37.95 64.61 37.96 64.58 37.98 64.56C38 64.54 38.01 64.51 38.03 64.49C38.05 64.47 38.06 64.44 38.08 64.42C38.1 64.4 38.12 64.37 38.13 64.35C38.15 64.33 38.17 64.31 38.18 64.28C38.2 64.26 38.22 64.24 38.24 64.21C38.26 64.19 38.28 64.17 38.3 64.15C38.32 64.13 38.34 64.11 38.36 64.09C38.4 64.05 38.44 64.01 38.48 63.96C38.7 63.73 38.94 63.52 39.21 63.34C39.33 63.25 39.46 63.17 39.59 63.09C39.59 63.09 39.64 63.06 39.67 63.04C39.7 63.02 39.72 63.01 39.75 62.99C39.78 62.97 39.8 62.96 39.83 62.94C39.86 62.93 39.88 62.91 39.91 62.9C39.94 62.89 39.96 62.87 39.99 62.86C40.02 62.85 40.05 62.83 40.07 62.82C40.1 62.81 40.13 62.79 40.16 62.78C40.19 62.77 40.22 62.75 40.25 62.74C40.28 62.73 40.31 62.71 40.34 62.7C40.37 62.69 40.4 62.67 40.43 62.66C40.46 62.65 40.49 62.63 40.52 62.62C40.55 62.61 40.58 62.59 40.61 62.58C40.64 62.57 40.67 62.55 40.7 62.54C40.73 62.53 40.76 62.52 40.79 62.5C40.82 62.49 40.85 62.48 40.88 62.46C40.91 62.45 40.94 62.44 40.97 62.42C40.97 62.42 41.03 62.4 41.07 62.39C41.1 62.38 41.13 62.37 41.17 62.36C41.2 62.35 41.23 62.34 41.27 62.33C41.3 62.32 41.34 62.31 41.37 62.3C41.4 62.29 41.44 62.28 41.47 62.27C41.5 62.26 41.54 62.25 41.57 62.24C41.6 62.24 41.64 62.22 41.67 62.21C41.7 62.21 41.74 62.19 41.77 62.18C41.8 62.18 41.84 62.16 41.87 62.15C41.9 62.15 41.94 62.13 41.97 62.12C42.01 62.12 42.04 62.1 42.08 62.09C42.12 62.09 42.15 62.07 42.19 62.06C42.23 62.06 42.26 62.04 42.3 62.04C42.34 62.04 42.37 62.02 42.41 62.02C42.41 62.02 42.48 62 42.52 62C42.56 62 42.59 61.99 42.63 61.98C42.63 61.98 42.7 61.97 42.74 61.96C42.78 61.96 42.82 61.95 42.85 61.94C42.89 61.94 42.93 61.93 42.96 61.92C43 61.92 43.04 61.91 43.08 61.9C43.12 61.9 43.16 61.89 43.2 61.88C43.24 61.88 43.28 61.87 43.32 61.86C43.36 61.86 43.4 61.85 43.44 61.84C43.48 61.84 43.52 61.83 43.56 61.82C43.56 61.82 43.64 61.81 43.68 61.8C43.72 61.8 43.76 61.8 43.8 61.79C43.84 61.79 43.88 61.79 43.92 61.78C43.96 61.78 44 61.78 44.04 61.77C44.08 61.77 44.12 61.77 44.16 61.76C44.2 61.76 44.24 61.76 44.29 61.75C44.33 61.75 44.37 61.75 44.42 61.74C44.46 61.74 44.51 61.74 44.55 61.74C44.59 61.74 44.64 61.74 44.68 61.74C44.72 61.74 44.77 61.74 44.81 61.74C44.85 61.74 44.9 61.74 44.94 61.74C44.98 61.74 45.03 61.74 45.07 61.74C45.11 61.74 45.16 61.74 45.2 61.74C45.24 61.74 45.29 61.74 45.33 61.74C45.37 61.74 45.42 61.74 45.47 61.74C45.52 61.74 45.56 61.74 45.61 61.74C45.66 61.74 45.7 61.74 45.75 61.74C45.8 61.74 45.84 61.74 45.89 61.74C45.94 61.74 45.98 61.74 46.03 61.74C46.08 61.74 46.13 61.74 46.18 61.74C46.23 61.74 46.28 61.74 46.32 61.74C46.37 61.74 46.42 61.74 46.46 61.74C46.51 61.74 46.55 61.74 46.6 61.74C46.65 61.74 46.69 61.74 46.74 61.74C46.79 61.74 46.83 61.74 46.88 61.74C46.93 61.74 46.97 61.74 47.02 61.74C47.07 61.74 47.11 61.74 47.16 61.74C47.21 61.74 47.25 61.74 47.3 61.74C47.35 61.74 47.39 61.74 47.44 61.74C47.49 61.74 47.53 61.74 47.57 61.74C47.61 61.74 47.66 61.74 47.7 61.75C47.74 61.75 47.79 61.75 47.83 61.76C47.87 61.76 47.92 61.76 47.96 61.77C48 61.77 48.05 61.77 48.09 61.78C48.13 61.78 48.18 61.78 48.22 61.79C48.26 61.79 48.31 61.8 48.35 61.81C48.35 61.81 48.43 61.82 48.48 61.83C48.48 61.83 48.56 61.84 48.61 61.85C48.65 61.85 48.69 61.86 48.73 61.87C48.77 61.87 48.81 61.88 48.85 61.89C48.89 61.89 48.93 61.9 48.97 61.91C49.01 61.91 49.05 61.92 49.09 61.93C49.17 61.94 49.25 61.96 49.33 61.98C49.37 61.98 49.41 62 49.45 62C49.57 62.02 49.68 62.05 49.8 62.08C49.84 62.08 49.88 62.1 49.91 62.11C50.02 62.14 50.13 62.17 50.24 62.2C50.28 62.21 50.31 62.22 50.35 62.23C50.46 62.26 50.57 62.29 50.67 62.33C50.74 62.35 50.81 62.38 50.88 62.4C51.05 62.46 51.22 62.53 51.38 62.59C51.44 62.62 51.51 62.65 51.57 62.67C51.6 62.68 51.63 62.7 51.66 62.71C51.69 62.72 51.72 62.74 51.75 62.75C51.78 62.76 51.81 62.78 51.84 62.8C51.84 62.8 51.9 62.83 51.93 62.85C51.96 62.87 51.99 62.88 52.02 62.9C52.02 62.9 52.08 62.93 52.11 62.95C52.14 62.97 52.17 62.98 52.2 63C52.2 63 52.26 63.03 52.29 63.05C52.32 63.07 52.35 63.08 52.38 63.1C52.41 63.12 52.44 63.13 52.46 63.15C52.49 63.17 52.52 63.19 52.54 63.2C52.57 63.22 52.6 63.24 52.62 63.25C52.62 63.25 52.67 63.29 52.7 63.31C52.73 63.33 52.75 63.35 52.78 63.37C52.81 63.39 52.83 63.41 52.86 63.43C52.89 63.45 52.91 63.47 52.94 63.49C52.97 63.51 52.99 63.53 53.02 63.55C53.05 63.57 53.07 63.59 53.1 63.61V63.8L50.03 66.22H49.88C49.61 66.01 49.32 65.83 49.02 65.67C48.99 65.65 48.96 65.64 48.92 65.62L48.87 65.6H48.85L48.8 65.57H48.78L48.76 65.55C48.74 65.55 48.73 65.54 48.71 65.53C48.69 65.53 48.68 65.52 48.66 65.51H48.64V65.5H48.62V65.49H48.6L48.58 65.47H48.55L48.52 65.45H48.49H48.46L48.43 65.43H48.4L48.37 65.41H48.34L48.31 65.39H48.28L48.25 65.37H48.22L48.19 65.35H48.16L48.13 65.33H48.1L48.07 65.31H48.04L48.01 65.29H47.98L47.95 65.28H47.92L47.89 65.27H47.86L47.83 65.26H47.8H47.77L47.74 65.25H47.71L47.68 65.24H47.64H47.6L47.56 65.23H47.52L47.48 65.22H47.44L47.4 65.21H47.36H47.32H47.28H47.24H47.2H47.16H47.12H47.08H47.04H47H46.96H46.92H46.88H46.84H46.8H46.76H46.72H46.68H46.64H46.6H46.56H46.52H46.48H46.43H46.38H46.33H46.28H46.23H46.18H46.13H46.08H46.03H45.98H45.9H45.83H45.76H45.69H45.62H45.55H45.48H45.41H45.34H45.27H45.2H45.13H45.06H44.99L44.92 65.22H44.86L44.8 65.23H44.74L44.68 65.25H44.62L44.56 65.27H44.5L44.44 65.29H44.38L44.32 65.31H44.26V65.32H44.2V65.33H44.14C44.14 65.33 44.1 65.35 44.08 65.35H44.03L43.98 65.38H43.93L43.88 65.41H43.83V65.42H43.78L43.73 65.45L43.68 65.47C43.68 65.47 43.65 65.48 43.63 65.49C43.61 65.49 43.6 65.5 43.58 65.51C43.58 65.51 43.55 65.52 43.53 65.53C43.51 65.53 43.5 65.54 43.48 65.55C43.46 65.55 43.45 65.56 43.43 65.57L43.38 65.59C43.38 65.59 43.35 65.6 43.34 65.61L43.3 65.63C43.3 65.63 43.27 65.64 43.26 65.65L43.22 65.67C43.22 65.67 43.19 65.68 43.18 65.69L43.14 65.71L43.1 65.73C43.1 65.73 43.07 65.74 43.06 65.75L43.02 65.77C43.02 65.77 42.99 65.78 42.98 65.79L42.94 65.81C42.94 65.81 42.92 65.83 42.9 65.83L42.86 65.85C42.86 65.85 42.84 65.87 42.82 65.87C42.81 65.87 42.8 65.89 42.78 65.89C42.77 65.89 42.76 65.91 42.75 65.91C42.74 65.91 42.73 65.93 42.72 65.94C42.71 65.94 42.7 65.96 42.69 65.97C42.68 65.97 42.67 65.99 42.66 66C42.65 66 42.64 66.02 42.63 66.03C42.62 66.03 42.61 66.05 42.6 66.06L42.57 66.09L42.54 66.12L42.51 66.15L42.48 66.18C42.48 66.18 42.46 66.2 42.45 66.21L42.42 66.24C42.42 66.24 42.4 66.26 42.39 66.27C42.39 66.28 42.37 66.29 42.36 66.3L42.33 66.33C42.33 66.33 42.31 66.35 42.3 66.36C42.3 66.37 42.28 66.38 42.27 66.39C42.25 66.41 42.24 66.43 42.22 66.45L42.2 66.48C42.2 66.48 42.17 66.52 42.15 66.55L42.13 66.58L42.11 66.61L42.09 66.65C42.09 66.65 42.06 66.7 42.05 66.72C42.05 66.73 42.04 66.74 42.03 66.76L42.01 66.8L41.99 66.84L41.97 66.88L41.95 66.92L41.93 66.96C41.93 66.96 41.92 66.99 41.91 67L41.89 67.04L41.87 67.08L41.85 67.12C41.85 67.12 41.84 67.15 41.83 67.16L41.81 67.2V67.24L41.78 67.28V67.32L41.75 67.36V67.4L41.73 67.44V67.48L41.71 67.52V67.57L41.69 67.62V67.67V67.72V67.77L41.67 67.82V67.87L41.65 67.92V67.97L41.64 68.02V68.07L41.63 68.12V68.17V68.22V68.27V68.32V68.37V68.42V68.47V68.52V68.57V68.62V68.67V68.7V68.73V68.76V68.79V68.82V68.85V68.88V68.91V68.94V68.97V69V69.03V69.06V69.09V69.12V69.15V69.18V69.21V69.24V69.27V69.3V69.33V69.36V69.39V69.42V69.45V69.48V69.51V69.54V69.57V69.6V69.63V69.66V69.69V69.72V69.74V69.76V69.78V69.8V69.82V69.84V69.86V69.88V69.9V69.92V69.94V69.96V69.98V70V70.02V70.04V70.06V70.08V70.1V70.12V70.14V70.16V70.18V70.2V70.22V70.24V70.26V70.28V70.3V70.32V70.34V70.36V70.38L41.64 70.4V70.42V70.44V70.46L41.65 70.48V70.5L41.66 70.52V70.54V70.56V70.58L41.67 70.6V70.62L41.68 70.64V70.66L41.69 70.68V70.7L41.71 70.72V70.74L41.73 70.76V70.78L41.75 70.8V70.82L41.77 70.84V70.86L41.79 70.88V70.9L41.81 70.92V70.94L41.83 70.96V70.98L41.85 71V71.02L41.87 71.04V71.06L41.89 71.08V71.1L41.91 71.12V71.14L41.93 71.16V71.18L41.95 71.2V71.22L41.97 71.24V71.26L41.99 71.28V71.3L42.01 71.32V71.34L42.03 71.36V71.38L42.06 71.4V71.42L42.09 71.44V71.46L42.12 71.48V71.5L42.15 71.52V71.54L42.18 71.56V71.58L42.21 71.6V71.62L42.24 71.64L42.26 71.66V71.68L42.29 71.69H42.31L42.33 71.72H42.35C42.35 71.72 42.38 71.76 42.4 71.78H42.42L42.44 71.81C42.51 71.86 42.58 71.91 42.66 71.96H42.68L42.7 71.98H42.72L42.74 72H42.76L42.78 72.02H42.8L42.82 72.04H42.84V72.05H42.86L42.88 72.07H42.9H42.92L42.94 72.09H42.96L42.98 72.11H43L43.02 72.13H43.04L43.06 72.15H43.08L43.1 72.17H43.12L43.14 72.19H43.16L43.18 72.21H43.2L43.22 72.23H43.25L43.28 72.25H43.31L43.34 72.26H43.37L43.4 72.27H43.43L43.46 72.28H43.49L43.52 72.29C44.09 72.44 44.84 72.5 45.76 72.5C47.08 72.5 48.01 72.39 48.57 72.12C49.13 71.85 49.42 71.54 49.42 70.9V70.8L49.3 70.68H45.26L45.15 70.57L45.13 67.65L45.25 67.53H53.45L53.57 67.65V70.01C53.57 71.99 52.93 73.42 51.64 74.32C50.35 75.22 48.58 75.67 45.53 75.67L45.51 75.69C44.83 75.69 44.19 75.67 43.6 75.62H43.54H43.48C43.44 75.62 43.4 75.62 43.37 75.62H43.31L43.25 75.61H43.19L43.13 75.6H43.07L43.02 75.59H42.97L42.92 75.58H42.87L42.82 75.57H42.77L42.72 75.56H42.67L42.62 75.55H42.52L42.72 75.32ZM75.82 61.9L75.88 61.84L75.94 61.78H89.24L89.36 61.9V65.03L89.24 65.15H80.65L80.53 65.27V66.65L80.65 66.77H88.91L89.02 66.89V69.9L88.91 70.01H80.65L80.53 70.13V71.76L80.65 71.87H89.23L89.35 71.99V75.39L89.23 75.51H75.93L75.82 75.37V61.88V61.9ZM94.65 67.5C94.65 67.5 94.64 67.46 94.63 67.45L94.65 67.5ZM94.67 67.55C94.67 67.55 94.66 67.52 94.65 67.5L94.67 67.55ZM95.54 68.7L95.52 68.68L95.5 68.66L95.48 68.64L95.46 68.62L95.55 68.69L95.54 68.7ZM96.74 71.47C96.8 71.49 96.86 71.52 96.91 71.54L96.74 71.47ZM95.45 68.63C95.45 68.63 95.41 68.59 95.38 68.57L95.36 68.55C95.14 68.35 94.96 68.13 94.83 67.89C94.77 67.78 94.72 67.67 94.67 67.55C94.67 67.55 94.66 67.52 94.65 67.5C94.65 67.48 94.64 67.46 94.63 67.45V67.42V67.39V67.36V67.33V67.3L94.61 67.27V67.24L94.59 67.21V67.18V67.15V67.12L94.58 67.09V67.06V67.03L94.57 67V66.97L94.56 66.94V66.91L94.55 66.88V66.85L94.54 66.82V66.79V66.76V66.73V66.7V66.67V66.64V66.61V66.58V66.55V66.52V66.49V66.46V66.43V66.4V66.37V66.34V66.31V66.28V66.25V66.22V66.19V66.16V66.13V66.1V66.07C94.54 66.05 94.54 66.02 94.54 66C94.54 65.98 94.54 65.95 94.54 65.93C94.54 65.91 94.54 65.88 94.54 65.86C94.54 65.84 94.54 65.81 94.54 65.79C94.54 65.77 94.54 65.74 94.54 65.72C94.54 65.7 94.54 65.67 94.54 65.65C94.54 65.63 94.54 65.6 94.54 65.58C94.54 65.56 94.54 65.53 94.54 65.51C94.54 65.49 94.54 65.46 94.54 65.44C94.54 65.42 94.54 65.4 94.54 65.37C94.54 65.35 94.54 65.33 94.54 65.3C94.54 65.28 94.54 65.26 94.55 65.23C94.55 65.21 94.55 65.19 94.56 65.17C94.56 65.15 94.56 65.13 94.57 65.11C94.57 65.09 94.57 65.07 94.58 65.05C94.58 65.03 94.58 65.01 94.59 64.99C94.59 64.97 94.59 64.95 94.6 64.93C94.6 64.91 94.6 64.89 94.62 64.87C94.62 64.87 94.63 64.83 94.64 64.81C94.64 64.79 94.65 64.77 94.66 64.75C94.66 64.73 94.67 64.71 94.68 64.69C94.68 64.67 94.69 64.65 94.7 64.63C94.7 64.61 94.71 64.59 94.72 64.57C94.72 64.55 94.73 64.53 94.74 64.51C94.74 64.49 94.75 64.47 94.76 64.45C94.76 64.43 94.77 64.41 94.78 64.39C94.78 64.37 94.8 64.35 94.8 64.33C94.82 64.29 94.83 64.26 94.85 64.22C94.85 64.2 94.87 64.18 94.88 64.17C94.94 64.05 95.01 63.93 95.08 63.82C95.14 63.72 95.21 63.63 95.29 63.54C95.35 63.47 95.42 63.4 95.49 63.33C95.5 63.32 95.52 63.3 95.53 63.29C95.62 63.21 95.71 63.13 95.8 63.06C95.82 63.05 95.83 63.04 95.85 63.02C95.87 63.01 95.88 63 95.9 62.98C95.92 62.97 95.93 62.96 95.95 62.95C95.97 62.94 95.98 62.93 96 62.92C96.02 62.91 96.03 62.9 96.05 62.89C96.07 62.88 96.08 62.87 96.1 62.86C96.12 62.85 96.14 62.84 96.15 62.83C96.17 62.82 96.19 62.81 96.2 62.8C96.22 62.79 96.24 62.78 96.25 62.77C97.43 62.13 99.34 61.81 101.96 61.81C104.98 61.81 107.38 62.24 109.16 63.11L109.19 63.3L106.8 66.01L106.66 66.03C106.58 65.99 106.5 65.95 106.41 65.91H106.38L106.35 65.89H106.32L106.29 65.87H106.26L106.23 65.85H106.2L106.17 65.83H106.14L106.11 65.81H106.08L106.05 65.79H106.02L105.99 65.77L105.96 65.76H105.93L105.9 65.74H105.87L105.84 65.72H105.81L105.78 65.7H105.75L105.72 65.68H105.69L105.66 65.66H105.63L105.6 65.64L105.57 65.63H105.54L105.51 65.61H105.48L105.44 65.59H105.4L105.36 65.57H105.32L105.28 65.55H105.24L105.2 65.53H105.16L105.12 65.51H105.08L105.04 65.49H105L104.96 65.47H104.92L104.88 65.45H104.84L104.8 65.43H104.76L104.72 65.41H104.68L104.64 65.39H104.6L104.56 65.37C103.64 65.17 102.75 65.06 101.9 65.06H101.79H101.74H101.69H101.64H101.59H101.54H101.49H101.44H101.39H101.34H101.29H101.24H101.19H101.14H101.1H101.06H101.02H100.98H100.94H100.9H100.86H100.82H100.78H100.74H100.7H100.66H100.62H100.58H100.54H100.5H100.46H100.43H100.4H100.37H100.34H100.31H100.28H100.25H100.22H100.19H100.16H100.13H100.1H100.07H100.04H100.01H99.98H99.95H99.93H99.91H99.89L99.87 65.07H99.85L99.83 65.08H99.81L99.79 65.09H99.77L99.75 65.1H99.73L99.71 65.11H99.69L99.67 65.12H99.65C99.31 65.27 99.14 65.51 99.14 65.85V65.87V65.89V65.91V65.93V65.95V65.97V65.99V66.01V66.03V66.05V66.07L99.15 66.09V66.12V66.15V66.18V66.21L99.16 66.22H99.17L99.18 66.25L99.19 66.26H99.2L99.21 66.29H99.22L99.23 66.32H99.24C99.24 66.32 99.26 66.35 99.27 66.36C99.35 66.43 99.45 66.48 99.58 66.54C99.6 66.54 99.61 66.55 99.63 66.56C99.65 66.56 99.66 66.57 99.68 66.58H99.71L99.74 66.6H99.77C99.8 66.6 99.82 66.62 99.85 66.63H99.88L99.91 66.65H99.94L99.97 66.67H100L100.03 66.69H100.06L100.08 66.7H100.1H100.12H100.14H100.16H100.18H100.2H100.23H100.26H100.29H100.32H100.35H100.38H100.41H100.44H100.47H100.5H100.53H100.56H100.59H100.62H100.66H100.7H100.74H100.78H100.82H100.86H100.9L100.94 66.71H100.98L101.02 66.72H101.06H101.1H101.14L101.18 66.73H101.23H101.28H101.33H101.38C101.78 66.78 102.25 66.83 102.8 66.89C103.17 66.93 103.52 66.97 103.84 67H103.88H103.92H103.96H104H104.04H104.08H104.12H104.16H104.2H104.24H104.28H104.32H104.36H104.4H104.44H104.47H104.5H104.53H104.56H104.59H104.62H104.69L104.72 67.01H104.75L104.85 67.03C104.97 67.05 105.08 67.06 105.18 67.08C105.29 67.1 105.39 67.12 105.5 67.14L105.56 67.15H105.59L105.65 67.17H105.68L105.71 67.18H105.74L105.77 67.19H105.8L105.83 67.2H105.86L105.89 67.21H105.92H105.95H105.98L106.01 67.22H106.04L106.07 67.23H106.1L106.13 67.24H106.16L106.19 67.25H106.22L106.25 67.26H106.28L106.31 67.27H106.34L106.37 67.29H106.4L106.43 67.31H106.46L106.49 67.33H106.52L106.55 67.35H106.58L106.61 67.37H106.64L106.67 67.39H106.7L106.73 67.41H106.76L106.79 67.43H106.82L106.85 67.45H106.88L106.91 67.47H106.94L106.97 67.49H107L107.03 67.51H107.06L107.09 67.53C107.73 67.73 108.23 67.96 108.58 68.24C108.94 68.52 109.23 68.88 109.45 69.32C109.67 69.76 109.79 70.28 109.79 70.88C109.79 72.33 109.21 73.42 108.05 74.15C106.89 74.88 104.84 75.24 101.91 75.24V75.26C100.03 75.26 98.37 75.1 96.93 74.79C96.76 74.75 96.58 74.71 96.42 74.67C96.38 74.66 96.34 74.65 96.29 74.64C96.21 74.62 96.12 74.6 96.04 74.57C96 74.56 95.96 74.55 95.92 74.53C95.84 74.51 95.76 74.48 95.68 74.46C95.68 74.46 95.6 74.44 95.56 74.42C95.52 74.41 95.48 74.39 95.44 74.38C95.4 74.37 95.36 74.35 95.32 74.34C95.28 74.33 95.24 74.31 95.21 74.3C95.21 74.3 95.13 74.27 95.1 74.26C95.06 74.25 95.02 74.23 94.99 74.22C94.95 74.21 94.92 74.19 94.88 74.18C94.84 74.17 94.81 74.15 94.77 74.14C94.73 74.13 94.7 74.11 94.66 74.1C94.62 74.09 94.59 74.07 94.55 74.05C94.51 74.03 94.48 74.02 94.44 74C94.4 73.98 94.37 73.97 94.33 73.95C94.3 73.93 94.26 73.92 94.23 73.9C94.2 73.88 94.16 73.87 94.13 73.85C94.1 73.83 94.06 73.82 94.03 73.8C94 73.78 93.96 73.77 93.93 73.75C93.9 73.73 93.86 73.72 93.83 73.7C93.8 73.68 93.76 73.67 93.73 73.65C93.7 73.63 93.66 73.61 93.63 73.6C93.6 73.58 93.57 73.56 93.53 73.55C93.5 73.53 93.47 73.51 93.43 73.49L93.41 73.31L95.62 70.81L96.44 71.12C96.44 71.12 96.5 71.15 96.53 71.16C96.56 71.17 96.59 71.19 96.62 71.2C96.65 71.21 96.68 71.22 96.71 71.24C96.77 71.26 96.83 71.29 96.88 71.31C96.88 71.31 96.94 71.33 96.97 71.34C97 71.35 97.03 71.36 97.06 71.37C97.09 71.38 97.12 71.39 97.15 71.4L97.24 71.43L97.33 71.46L97.42 71.49C97.42 71.49 97.48 71.51 97.51 71.52C97.54 71.53 97.57 71.54 97.6 71.55C97.63 71.55 97.66 71.57 97.69 71.58C97.72 71.58 97.75 71.6 97.78 71.61C97.81 71.61 97.84 71.63 97.87 71.64C97.9 71.64 97.93 71.66 97.96 71.67C97.99 71.67 98.02 71.69 98.05 71.7C98.08 71.71 98.11 71.72 98.14 71.73C98.17 71.73 98.2 71.75 98.23 71.76L98.32 71.78C98.32 71.78 98.38 71.8 98.41 71.8L98.5 71.82C98.5 71.82 98.56 71.83 98.59 71.84L98.68 71.86C98.68 71.86 98.74 71.87 98.77 71.88L98.86 71.9C98.86 71.9 98.92 71.91 98.96 71.92L99.06 71.94L99.16 71.96C99.16 71.96 99.22 71.97 99.26 71.98L99.36 72C99.36 72 99.42 72.01 99.46 72.02C99.49 72.02 99.52 72.03 99.56 72.04H99.66C99.66 72.04 99.72 72.06 99.76 72.07C99.79 72.07 99.83 72.07 99.86 72.08C99.89 72.08 99.93 72.08 99.96 72.09H100.06L100.16 72.11C100.19 72.11 100.23 72.11 100.26 72.12C100.29 72.12 100.33 72.12 100.36 72.13C100.39 72.13 100.43 72.13 100.46 72.13H100.56L100.66 72.15C100.69 72.15 100.73 72.15 100.76 72.15H100.86C100.86 72.15 100.93 72.16 100.96 72.16H101.06C101.06 72.16 101.13 72.16 101.16 72.16C101.19 72.16 101.23 72.16 101.26 72.16C101.29 72.16 101.33 72.16 101.36 72.16H101.46C101.46 72.16 101.53 72.16 101.56 72.16H101.66H101.76C102.79 72.16 103.56 72.11 104.04 72.02C104.53 71.93 104.83 71.82 104.94 71.69C105.05 71.56 105.1 71.35 105.1 71.06C105.1 70.75 104.85 70.53 104.35 70.39C103.85 70.25 102.93 70.13 101.59 70H101.53L101.47 69.99H101.41L101.35 69.98H101.29L101.23 69.97H101.17L101.11 69.96H101.05L100.99 69.95H100.93L100.87 69.94H100.81L100.75 69.93H100.69L100.63 69.92H100.57H100.51L100.45 69.91H100.39L100.34 69.9H100.29L100.24 69.89H100.19L100.14 69.88H100.09L100.04 69.87H99.99L99.94 69.86H99.89L99.84 69.85H99.79L99.74 69.84H99.69L99.64 69.83H99.59H99.54L99.49 69.82H99.44L99.39 69.81H99.34L99.29 69.8H99.24L99.19 69.79H99.14L99.09 69.78H99.04L99 69.77H98.96L98.92 69.76H98.88L98.84 69.75H98.8L98.76 69.74H98.72L98.68 69.73H98.64L98.6 69.71H98.56L98.52 69.69H98.48L98.44 69.68H98.4L98.36 69.66C97.53 69.5 96.78 69.25 96.15 68.94H96.12L96.09 68.91H96.06L96.03 68.88H96L95.97 68.85L95.94 68.83L95.91 68.81L95.88 68.79L95.85 68.77L95.82 68.75L95.79 68.73L95.76 68.71L95.37 68.43L95.45 68.63ZM13.9 75.52H10.14L10.03 75.4V70.44L9.91 70.32H4.14L4.02 70.44V75.4L3.91 75.52H0.12L0 75.4V61.91L0.11 61.79H3.88L3.99 61.91V66.87L4.11 66.98H9.88L10 66.87V61.92L10.11 61.8H13.88L14 61.92V75.41L13.88 75.53L13.9 75.52Z" fill="var(--fill-0, #465F75)"/>
<path id="Vector_2" fill-rule="evenodd" clip-rule="evenodd" d="M29.25 80.94C29.25 81.28 29.31 81.54 29.43 81.72C29.55 81.9 29.73 81.99 29.98 81.99C30.23 81.99 30.4 81.91 30.52 81.75C30.63 81.59 30.7 81.33 30.7 80.99V80.37C30.7 80.02 30.65 79.76 30.53 79.58C30.41 79.4 30.23 79.32 29.98 79.32C29.73 79.32 29.56 79.41 29.44 79.58C29.32 79.75 29.26 80.01 29.25 80.35V80.95V80.94ZM29.99 82.38C29.64 82.38 29.35 82.26 29.15 82.02C28.95 81.78 28.84 81.44 28.83 81.01V80.38C28.83 79.93 28.93 79.58 29.13 79.34C29.33 79.1 29.61 78.96 29.98 78.96C30.35 78.96 30.62 79.08 30.82 79.32C31.02 79.56 31.12 79.91 31.13 80.36V80.97C31.13 81.43 31.04 81.78 30.84 82.02C30.64 82.26 30.36 82.39 29.99 82.39V82.38ZM37.38 82.38H36.95L35.58 79.74V82.38H35.15V78.95H35.58L36.96 81.6V78.95H37.38V82.38ZM42.47 82.37C42.27 82.37 42.09 82.33 41.92 82.24C41.75 82.15 41.62 82.04 41.52 81.88C41.42 81.72 41.37 81.55 41.37 81.35H41.8C41.8 81.55 41.86 81.72 41.98 81.83C42.1 81.94 42.26 82 42.46 82C42.65 82 42.79 81.95 42.89 81.86C42.99 81.77 43.04 81.63 43.04 81.47V81.49C43.04 81.33 43 81.2 42.91 81.11C42.82 81.02 42.65 80.94 42.4 80.85C42.15 80.76 41.98 80.68 41.84 80.59C41.71 80.5 41.62 80.39 41.55 80.27C41.48 80.15 41.45 80.02 41.45 79.86C41.45 79.6 41.54 79.38 41.72 79.21C41.9 79.04 42.14 78.96 42.43 78.96C42.63 78.96 42.81 79 42.97 79.09C43.13 79.18 43.25 79.3 43.33 79.46C43.41 79.61 43.46 79.79 43.46 79.97H43.03C43.03 79.77 42.98 79.6 42.87 79.49C42.76 79.38 42.63 79.32 42.43 79.32C42.26 79.32 42.12 79.37 42.02 79.46C41.92 79.55 41.87 79.69 41.87 79.86C41.87 80 41.92 80.12 42.03 80.21C42.14 80.3 42.29 80.39 42.51 80.46C42.84 80.57 43.09 80.7 43.24 80.86C43.39 81.02 43.46 81.23 43.46 81.48C43.46 81.75 43.37 81.97 43.19 82.13C43.01 82.29 42.77 82.37 42.46 82.37H42.47ZM48.83 82.38H48.4V79.32H47.5V78.95H49.74V79.32H48.83V82.38ZM54.18 80.62H54.7C54.88 80.62 55.03 80.56 55.13 80.45C55.24 80.34 55.29 80.18 55.29 79.98C55.29 79.54 55.09 79.32 54.69 79.32H54.18V80.62ZM55.86 82.38H55.39L54.78 80.99H54.18V82.38H53.75V78.95H54.71C55.04 78.95 55.3 79.04 55.48 79.21C55.66 79.38 55.74 79.64 55.74 79.98C55.74 80.19 55.69 80.38 55.6 80.54C55.51 80.7 55.37 80.82 55.2 80.9L55.86 82.36V82.38ZM60.91 82.38C60.58 82.38 60.31 82.29 60.13 82.11C59.95 81.93 59.86 81.68 59.86 81.35V78.94H60.28V81.33C60.28 81.56 60.33 81.73 60.43 81.84C60.53 81.95 60.68 82.01 60.9 82.01C61.12 82.01 61.28 81.95 61.37 81.84C61.47 81.73 61.52 81.55 61.52 81.33V78.94H61.96V81.36C61.96 81.68 61.86 81.93 61.67 82.11C61.48 82.29 61.23 82.38 60.89 82.38H60.91ZM67.3 82.38H66.87V79.32H65.97V78.95H68.21V79.32H67.3V82.38ZM72.64 80.94C72.64 81.28 72.7 81.54 72.82 81.72C72.94 81.9 73.12 81.99 73.37 81.99C73.62 81.99 73.79 81.91 73.91 81.75C74.02 81.59 74.09 81.33 74.09 80.99V80.37C74.09 80.02 74.04 79.76 73.92 79.58C73.8 79.4 73.62 79.32 73.37 79.32C73.12 79.32 72.95 79.41 72.83 79.58C72.71 79.75 72.65 80.01 72.64 80.35V80.95V80.94ZM73.37 82.38C73.02 82.38 72.73 82.26 72.53 82.02C72.33 81.78 72.22 81.44 72.21 81.01V80.38C72.21 79.93 72.31 79.58 72.51 79.34C72.71 79.1 72.99 78.96 73.36 78.96C73.73 78.96 74 79.08 74.2 79.32C74.4 79.56 74.5 79.91 74.51 80.36V80.97C74.51 81.43 74.42 81.78 74.22 82.02C74.02 82.26 73.74 82.39 73.37 82.39V82.38ZM78.96 80.62H79.48C79.66 80.62 79.81 80.56 79.91 80.45C80.02 80.34 80.07 80.18 80.07 79.98C80.07 79.54 79.87 79.32 79.47 79.32H78.96V80.62ZM80.65 82.38H80.18L79.57 80.99H78.97V82.38H78.54V78.95H79.5C79.83 78.95 80.09 79.04 80.27 79.21C80.45 79.38 80.53 79.64 80.53 79.98C80.53 80.19 80.48 80.38 80.39 80.54C80.3 80.7 80.16 80.82 79.99 80.9L80.65 82.36V82.38ZM85.47 81.11H86.41L85.94 79.55L85.47 81.11ZM87.23 82.38H86.79L86.51 81.48H85.35L85.08 82.38H84.65L85.75 78.94H86.12L87.23 82.38ZM23.72 82.38C23.39 82.38 23.1 82.25 22.9 82C22.7 81.75 22.6 81.4 22.6 80.96V80.36C22.6 79.93 22.71 79.58 22.91 79.33C23.11 79.08 23.4 78.95 23.76 78.95C24.09 78.95 24.35 79.05 24.53 79.24C24.71 79.43 24.81 79.71 24.82 80.06H24.38C24.36 79.79 24.31 79.59 24.2 79.48C24.09 79.37 23.95 79.31 23.74 79.31C23.5 79.31 23.32 79.4 23.2 79.58C23.08 79.76 23.01 80.02 23.01 80.36V80.97C23.01 81.3 23.07 81.57 23.18 81.75C23.29 81.93 23.47 82.02 23.69 82.02C23.91 82.02 24.07 81.96 24.17 81.86C24.27 81.75 24.33 81.56 24.35 81.27H24.82C24.8 81.63 24.7 81.9 24.51 82.09C24.32 82.29 24.05 82.38 23.72 82.38Z" fill="var(--fill-0, #8C6B4F)"/>
<path id="Vector_3" fill-rule="evenodd" clip-rule="evenodd" d="M67.77 8.86V22.89L67.9 23L75.55 22.04L75.65 21.93V15.99L75.76 15.88L88.99 14.56L89.1 14.45V6.76L88.97 6.65L67.89 8.76L67.78 8.87L67.77 8.86ZM34.29 48.2H41.94L42.05 48.09V35.45L41.95 35.34L34.3 34.38L34.17 34.49V48.08L34.28 48.19L34.29 48.2ZM67.88 48.2H75.53L75.64 48.09V34.5L75.51 34.39L67.86 35.35L67.76 35.46V48.1L67.87 48.21L67.88 48.2ZM27.46 23.52V31.23L27.56 31.34L54.84 34.75H54.91L82.26 31.34L82.36 31.23V23.52L82.23 23.41L54.92 26.82H54.89L27.58 23.41L27.47 23.52H27.46ZM62.21 17.13V7.58L62.24 7.5L65.72 4.01V3.85L61.91 0.03L61.83 0H47.73L47.62 0.11V17.12L47.73 17.23L54.91 17.95H54.93L62.11 17.23L62.21 17.12V17.13ZM47.44 54.92H62.38C62.47 54.92 62.53 54.83 62.49 54.75L55.02 39.81C54.98 39.73 54.86 39.73 54.82 39.81L47.35 54.75C47.31 54.83 47.37 54.92 47.46 54.92H47.44ZM34.28 22.05L41.93 23.01L42.06 22.9V8.87L41.95 8.76L20.87 6.65L20.74 6.76V14.45L20.85 14.56L34.08 15.88L34.19 15.99V21.93L34.29 22.04L34.28 22.05Z" fill="var(--fill-0, #8C6B4F)"/>
</g>
<defs>
<clipPath id="clip0_0_4">
<rect width="109.82" height="82.38" fill="white"/>
</clipPath>
</defs>
</svg>
