<svg preserveAspectRatio="none" width="100%" height="100%" overflow="visible" style="display: block;" viewBox="0 0 14 14" fill="none" xmlns="http://www.w3.org/2000/svg">
<g id="Camada_1" clip-path="url(#clip0_0_4)">
<path id="Vector" fill-rule="evenodd" clip-rule="evenodd" d="M14.0001 6.08799C14.0001 6.56161 14.0001 7.03679 14.0001 7.52139C9.35127 7.52453 4.69926 7.52766 0.026837 7.53237C-0.0250091 7.05248 0.000128405 6.57102 0.0692564 6.05505C0.374048 6.19149 0.670985 6.30441 0.949068 6.45496C2.30649 7.19049 3.65763 7.19049 5.01662 6.45653C6.34734 5.73826 7.68277 5.73356 9.01505 6.45183C10.374 7.18421 11.7252 7.18421 13.0826 6.45026C13.3607 6.2997 13.6576 6.18522 13.9451 6.05505C13.964 6.0676 13.9828 6.07858 14.0001 6.09112M1.07161 3.25725C1.25072 3.01887 1.43139 2.77108 1.62307 2.53114C1.6482 2.49977 1.73776 2.49664 1.78803 2.51075C2.74483 2.78833 3.68591 2.74756 4.60186 2.34922C4.91136 2.21435 5.19887 2.02929 5.51152 1.90696C6.69612 1.43962 7.85873 1.50862 8.97421 2.12025C9.69534 2.51545 10.4542 2.72874 11.2743 2.66915C11.6042 2.64562 11.9294 2.5625 12.2546 2.4935C12.3395 2.47625 12.3898 2.47938 12.4416 2.54996C12.6129 2.78677 12.7904 3.01887 12.9742 3.26509C12.6474 3.45328 12.3191 3.57247 11.9766 3.65089C10.9444 3.88613 9.96871 3.73871 9.03862 3.22902C7.69062 2.49193 6.33791 2.49977 4.98677 3.23529C3.75504 3.90652 2.49816 3.94259 1.22244 3.36232C1.18159 3.3435 1.14231 3.32155 1.10461 3.29959C1.09675 3.29489 1.09361 3.28548 1.07318 3.25568L1.07161 3.25725ZM2.58143 1.59331C4.99777 -0.489363 8.90822 -0.569345 11.4518 1.58703C11.0842 1.62154 10.737 1.61213 10.3882 1.55724C9.89801 1.47882 9.44396 1.29847 9.0072 1.06323C7.67963 0.349665 6.34577 0.34496 5.02134 1.06637C4.29078 1.46471 3.52095 1.66388 2.68827 1.60429C2.65527 1.60272 2.62385 1.59801 2.57986 1.59331H2.58143ZM0.264072 5.04352C0.378762 4.7377 0.490309 4.43816 0.611283 4.11823C0.744826 4.18881 0.857945 4.24683 0.969492 4.30799C2.30649 5.0294 3.64663 5.03724 4.98363 4.31584C6.34105 3.58188 7.69219 3.58188 9.05119 4.3127C10.3898 5.03254 11.7299 5.02156 13.0638 4.29858C13.1722 4.23899 13.2821 4.18253 13.4188 4.11039C13.5382 4.42561 13.6529 4.72829 13.7676 5.03254C13.5115 5.158 13.2649 5.27248 13.0245 5.39795C11.6969 6.09897 10.3678 6.10681 9.04962 5.38854C8.07868 4.86003 7.06533 4.70163 5.99699 4.98235C5.6702 5.06861 5.34655 5.20348 5.04962 5.36501C3.67648 6.10837 2.3112 6.11935 0.939641 5.37129C0.727544 5.25523 0.504449 5.16114 0.262501 5.04508L0.264072 5.04352Z" fill="var(--fill-0, #A18064)"/>
<path id="Vector_2" fill-rule="evenodd" clip-rule="evenodd" d="M1.81304 11.7119C2.99764 12.013 4.09112 11.8483 5.13119 11.243C5.4894 11.0344 5.88374 10.9105 6.2938 10.8384C7.26002 10.669 8.17282 10.8195 9.02749 11.301C9.67793 11.668 10.3739 11.8656 11.1218 11.8389C11.4863 11.8248 11.8476 11.7542 12.2011 11.7103C12.0518 11.8609 11.8806 12.0255 11.7188 12.1996C11.5837 12.3439 11.4297 12.3878 11.2302 12.3878C8.38492 12.3831 5.53967 12.3878 2.69285 12.3925C2.57973 12.3925 2.49332 12.3643 2.4132 12.2859C2.21524 12.0914 2.01257 11.9032 1.81147 11.7119M9.31343 13.622C7.77691 14.1255 6.26866 14.127 4.74627 13.6299C5.99214 12.7877 7.7172 12.6042 9.31343 13.622ZM13.8146 8.87017C13.6371 9.29831 13.4611 9.72802 13.2773 10.1546C13.2632 10.1875 13.205 10.2142 13.1626 10.222C13.0951 10.233 13.0244 10.2252 12.9537 10.2252C8.96308 10.2283 4.97251 10.2299 0.983504 10.2377C0.837392 10.2377 0.757266 10.2016 0.703849 10.0636C0.549882 9.66685 0.386489 9.27479 0.226237 8.88115C0.238806 8.87017 0.251375 8.85762 0.265515 8.84665C0.314218 8.86076 0.364493 8.8686 0.410055 8.88899C0.620581 8.98779 0.832679 9.08659 1.04006 9.19324C2.34564 9.86916 3.65593 9.88014 4.94894 9.17912C6.33307 8.42948 7.69992 8.42792 9.08563 9.17442C10.3865 9.87544 11.6984 9.86289 13.0071 9.17755C13.2506 9.05052 13.502 8.93604 13.7502 8.81528C13.7706 8.8341 13.7926 8.85135 13.813 8.87017H13.8146Z" fill="var(--fill-0, #49627A)"/>
</g>
<defs>
<clipPath id="clip0_0_4">
<rect width="14" height="14" fill="white"/>
</clipPath>
</defs>
</svg>
