<svg width="110" height="83" viewBox="0 0 110 83" fill="none" xmlns="http://www.w3.org/2000/svg">
<g clip-path="url(#clip0_4036_624)">
<path fill-rule="evenodd" clip-rule="evenodd" d="M57.79 61.8999L57.91 61.7799H61.68L61.79 61.8999V66.8599L61.91 66.9699H67.68L67.79 66.8599V61.9099L67.91 61.7899H71.68L71.8 61.9099V75.3999L71.68 75.5199H67.91L67.79 75.3999V70.4399L67.68 70.3199H61.91L61.79 70.4399V75.3999L61.68 75.5199H57.91L57.79 75.3999V61.9099V61.8999ZM23.13 75.3299C23.13 75.3299 23.06 75.3299 23.03 75.3199C23.03 75.3199 22.94 75.3099 22.9 75.2999H22.87L22.81 75.2799H22.78L22.75 75.2699C22.75 75.2699 22.69 75.2599 22.66 75.2499H22.63H22.6L22.57 75.2399H22.54H22.51L22.48 75.2299H22.45L22.42 75.2199H22.39H22.36L22.33 75.2099H22.3L22.27 75.1999H22.24L22.21 75.1899H22.18L22.15 75.1799H22.12L22.09 75.1699H22.06L22.03 75.1599H22L21.97 75.1499H21.94L21.91 75.1399H21.88L21.85 75.1199H21.82L21.79 75.0999H21.76L21.73 75.0799H21.7L21.67 75.0599H21.64L21.61 75.0399H21.58L21.55 75.0199H21.53L21.51 74.9999H21.49L21.47 74.9799H21.45L21.43 74.9599H21.41L21.39 74.9399H21.37L21.35 74.9199H21.33L21.31 74.8999H21.29L21.27 74.8799H21.25L21.23 74.8599H21.21L21.19 74.8399H21.17L21.15 74.8199H21.13L21.11 74.7999H21.09L21.07 74.7799H21.05L21.03 74.7599H21.01L20.99 74.7399H20.97L20.95 74.7199H20.93L20.91 74.6999H20.89L20.87 74.6799H20.85L20.83 74.6599H20.81L20.79 74.6399H20.77L20.75 74.6199H20.73L20.69 74.5899H20.67L20.65 74.5699C20.53 74.5199 20.41 74.4599 20.29 74.3999C20.2 74.3599 20.12 74.3099 20.03 74.2599C20 74.2399 19.97 74.2299 19.94 74.2099H19.92L19.9 74.1899H19.88L19.86 74.1699L19.84 74.1599H19.82L19.8 74.1399H19.78L19.76 74.1199H19.74L19.72 74.0999L19.7 74.0899H19.68L19.66 74.0699H19.64L19.62 74.0499H19.6L19.58 74.0299H19.56L19.54 74.0099H19.53L19.52 73.9899H19.51L19.5 73.9699H19.49L19.48 73.9499H19.47L19.46 73.9299H19.45L19.44 73.8999H19.43L19.42 73.8699H19.41L19.4 73.8399H19.39L19.38 73.8099H19.37L19.36 73.7799H19.35L19.34 73.7499H19.33L19.32 73.7199H19.31L19.3 73.6899H19.29C19.03 73.3799 18.82 73.0999 18.66 72.8399V72.8199V72.7999V72.7699V72.7399V72.7099V72.6799V72.6499V72.6199V72.5899V72.5599V72.5299V72.4999V72.4699V72.4399V72.4099V72.3799V72.3499V72.3399V72.3299V72.3199V72.2999L18.65 72.2899V72.2599V72.2399V72.2199V72.1999V72.1799V72.1599V72.1399V72.1199V72.0999V72.0799V72.0599V72.0399V72.0199V71.9999V71.9799V71.9599V71.9399V71.9199V71.8999V71.8799V71.8599V71.8399V71.8199V71.7999C18.57 71.4399 18.52 71.1199 18.5 70.8499C18.48 70.5799 18.47 70.2599 18.47 69.8899V61.7799L18.59 61.6699H22.36L22.48 61.7799V69.3899C22.48 70.3699 22.7 71.0699 23.14 71.4799C23.58 71.8899 24.5 72.0999 25.92 72.0999H26.05H26.11H26.17H26.23H26.29H26.35H26.41H26.47H26.53H26.59H26.65H26.71H26.77H26.83H26.88H26.93H26.98L27.03 72.0899H27.08L27.13 72.0799H27.18L27.23 72.0699H27.28L27.33 72.0599H27.38L27.43 72.0499H27.48L27.53 72.0299H27.58L27.62 72.0099H27.66L27.7 71.9899H27.74L27.78 71.9699H27.82L27.86 71.9499H27.9L27.94 71.9299H27.98L28.02 71.9099H28.06L28.1 71.8899L28.14 71.8799H28.17L28.2 71.8499C28.2 71.8499 28.29 71.8099 28.33 71.7899C28.47 71.7199 28.6 71.6399 28.69 71.5599C28.77 71.4899 28.84 71.4099 28.9 71.3299L28.92 71.3099C28.92 71.3099 28.94 71.2799 28.95 71.2599C28.95 71.2599 28.97 71.2299 28.98 71.2099L29 71.1799C29 71.1799 29.01 71.1599 29.02 71.1499V71.1199L29.05 71.0899V71.0599L29.08 71.0299V70.9999L29.11 70.9699V70.9399L29.14 70.9099V70.8799L29.16 70.8499V70.8199L29.18 70.7899V70.7599L29.2 70.7299V70.6999L29.22 70.6699V70.6399L29.24 70.6099V70.5699L29.26 70.5299V70.4899L29.28 70.4499V70.4099L29.29 70.3699V70.3299L29.3 70.2899V70.2499L29.31 70.2099V70.1699L29.32 70.1299V70.0899V70.0499V70.0099V69.9699V69.9299V69.8899V69.8499V69.8099V69.7699V69.7299V69.6799V69.6299V69.5799V69.5299V69.4799V69.4299V61.8199L29.44 61.7099H33.21L33.33 61.8199V69.9299C33.33 70.3599 33.31 70.7299 33.28 71.0299C33.25 71.3299 33.17 71.6899 33.07 72.0999C32.96 72.5099 32.79 72.8499 32.58 73.1399C32.37 73.4299 32.06 73.7299 31.66 74.0399H31.64L31.62 74.0699H31.6L31.58 74.0999H31.56L31.54 74.1299H31.52L31.5 74.1599H31.48C31.48 74.1599 31.43 74.2099 31.4 74.2299L31.36 74.2599C31.36 74.2599 31.3 74.2899 31.28 74.3099C31.25 74.3299 31.21 74.3499 31.17 74.3699C31.15 74.3799 31.13 74.3899 31.1 74.4099C31.07 74.4299 31.04 74.4399 31.01 74.4599L30.97 74.4799H30.95L30.93 74.4999H30.91L30.86 74.5299L30.81 74.5499H30.79V74.5599H30.77L30.75 74.5799H30.73L30.71 74.5999H30.69L30.67 74.6199H30.65L30.63 74.6399H30.61H30.59H30.57L30.55 74.6599H30.53C30.53 74.6599 30.43 74.7099 30.38 74.7199H30.35C30.35 74.7199 30.3 74.7499 30.27 74.7499C30.22 74.7699 30.16 74.7799 30.11 74.7999H30.08L30.05 74.8199H30.02H29.99H29.96L29.93 74.8399L29.87 74.8599C29.49 74.9599 29.06 75.0599 28.57 75.1399H28.49L28.41 75.1599H28.37L28.33 75.1699H28.29L28.25 75.1799H28.21L28.17 75.1899H28.13L28.09 75.1999H28.05L28.01 75.2099H27.97L27.93 75.2199H27.89L27.85 75.2299H27.81H27.77H27.74H27.71H27.68H27.65H27.62H27.59H27.56H27.53H27.5H27.47H27.44H27.41H27.38H27.35H27.32H27.29H27.26H27.2C26.83 75.2699 26.44 75.2899 25.84 75.2899H25.82C25.29 75.2899 25.02 75.2799 24.75 75.2499H24.73H24.68H24.66H24.64H24.62H24.6H24.58H24.56H24.54H24.52H24.5H24.47H24.44H24.41H24.38H24.35H24.32H24.29H24.26H24.23H24.2H24.17H24.14H24.11H24.08H24.05H24.01H23.97H23.93H23.89H23.85H23.81H23.78H23.75H23.72H23.69H23.66H23.63H23.6H23.57L23.13 75.3299ZM42.26 66.4699C42.26 66.4699 42.23 66.5099 42.21 66.5399L42.26 66.4699ZM42.33 66.3699C42.33 66.3699 42.3 66.4099 42.28 66.4299L42.33 66.3699ZM42.72 75.3199C42.5 75.2899 42.28 75.2499 42.07 75.2099C41.8 75.1599 41.54 75.0999 41.29 75.0299H41.25L41.21 75.0099L41.17 74.9999L41.13 74.9899H41.09L41.05 74.9699H41.01L40.97 74.9399H40.93L40.89 74.9099H40.85L40.81 74.8799H40.77L40.73 74.8499H40.69L40.65 74.8199H40.61L40.57 74.7899H40.53L40.49 74.7599H40.45L40.41 74.7299H40.37L40.33 74.6999H40.29L40.25 74.6699H40.21L40.17 74.6399C40.15 74.6399 40.12 74.6199 40.1 74.6099L40.07 74.5899L40.04 74.5699L40.01 74.5499L39.98 74.5299L39.95 74.5099L39.92 74.4899L39.89 74.4699L39.86 74.4499L39.83 74.4299L39.8 74.4099L39.77 74.3899L39.74 74.3699L39.71 74.3499L39.68 74.3299L39.65 74.3099L39.62 74.2899L39.59 74.2699C38.94 73.8999 38.41 73.4299 38.01 72.8499L37.99 72.8199L37.97 72.7899L37.95 72.7599L37.93 72.7299L37.91 72.6999L37.89 72.6699L37.87 72.6399L37.85 72.6099L37.83 72.5799L37.81 72.5499L37.79 72.5199L37.77 72.4899L37.75 72.4599L37.73 72.4299L37.71 72.3999L37.69 72.3699L37.67 72.3399L37.65 72.3099L37.63 72.2799V72.2499L37.6 72.2199V72.1899L37.57 72.1599V72.1299L37.54 72.0999V72.0699L37.51 72.0399V72.0099H37.5V71.9799L37.47 71.9499V71.9199H37.46V71.8899L37.43 71.8599V71.8299L37.41 71.7999V71.7699H37.4V71.7399L37.38 71.7099V71.6799H37.37V71.6499L37.35 71.6199V71.5899L37.33 71.5599V71.5299L37.31 71.4999V71.4699L37.29 71.4399V71.4099L37.27 71.3799V71.3499L37.25 71.3199V71.2899L37.23 71.2599V71.2299V71.1999L37.21 71.1699V71.1399L37.19 71.1099V71.0799L37.17 71.0499V71.0199L37.16 70.9899V70.9599L37.15 70.9299C37 70.2499 36.92 69.4499 36.92 68.5399C36.92 68.4999 36.92 68.4699 36.92 68.4299C36.92 68.3899 36.92 68.3599 36.92 68.3199C36.92 68.2799 36.92 68.2499 36.92 68.2099C36.92 68.1699 36.92 68.1399 36.92 68.0999C36.92 68.0599 36.92 68.0299 36.92 67.9899C36.92 67.9499 36.92 67.9199 36.92 67.8799C36.92 67.8399 36.92 67.8099 36.92 67.7799C36.92 67.7499 36.92 67.7099 36.92 67.6799C36.92 67.6499 36.92 67.6099 36.92 67.5799C36.92 67.5499 36.92 67.5099 36.93 67.4799C36.93 67.4499 36.93 67.4099 36.94 67.3799C36.94 67.3499 36.94 67.3099 36.95 67.2799C36.95 67.2499 36.95 67.2099 36.96 67.1799C36.96 67.1499 36.96 67.1099 36.98 67.0799C37 67.0499 36.99 67.0099 37 66.9799C37 66.9499 37.01 66.9199 37.02 66.8799C37.02 66.8499 37.03 66.8199 37.04 66.7799C37.04 66.7499 37.05 66.7199 37.06 66.6899C37.06 66.6599 37.07 66.6299 37.08 66.5999C37.08 66.5699 37.09 66.5399 37.1 66.5099C37.1 66.4799 37.12 66.4499 37.12 66.4199C37.12 66.3899 37.14 66.3599 37.14 66.3299C37.14 66.2999 37.16 66.2699 37.17 66.2399C37.17 66.2099 37.19 66.1799 37.2 66.1499C37.2 66.1199 37.22 66.0899 37.23 66.0599C37.23 66.0299 37.25 65.9999 37.26 65.9699C37.26 65.9399 37.28 65.9099 37.29 65.8799C37.3 65.8499 37.31 65.8199 37.32 65.7899C37.33 65.7599 37.34 65.7299 37.35 65.7099C37.36 65.6799 37.37 65.6499 37.38 65.6299C37.39 65.5999 37.4 65.5699 37.41 65.5499C37.41 65.5499 37.43 65.4999 37.45 65.4699C37.46 65.4399 37.47 65.4199 37.49 65.3899C37.5 65.3599 37.52 65.3399 37.53 65.3099C37.54 65.2799 37.56 65.2599 37.57 65.2299C37.58 65.1999 37.6 65.1799 37.61 65.1499C37.61 65.1499 37.64 65.0999 37.65 65.0699C37.66 65.0399 37.68 65.0199 37.69 64.9899C37.7 64.9599 37.72 64.9399 37.73 64.9099C37.74 64.8899 37.76 64.8599 37.78 64.8399C37.79 64.8199 37.81 64.7899 37.83 64.7699C37.85 64.7499 37.86 64.7199 37.88 64.6999C37.9 64.6799 37.91 64.6499 37.93 64.6299C37.95 64.6099 37.96 64.5799 37.98 64.5599C38 64.5399 38.01 64.5099 38.03 64.4899C38.05 64.4699 38.06 64.4399 38.08 64.4199C38.1 64.3999 38.12 64.3699 38.13 64.3499C38.15 64.3299 38.17 64.3099 38.18 64.2799C38.2 64.2599 38.22 64.2399 38.24 64.2099C38.26 64.1899 38.28 64.1699 38.3 64.1499C38.32 64.1299 38.34 64.1099 38.36 64.0899C38.4 64.0499 38.44 64.0099 38.48 63.9599C38.7 63.7299 38.94 63.5199 39.21 63.3399C39.33 63.2499 39.46 63.1699 39.59 63.0899C39.59 63.0899 39.64 63.0599 39.67 63.0399C39.7 63.0199 39.72 63.0099 39.75 62.9899C39.78 62.9699 39.8 62.9599 39.83 62.9399C39.86 62.9299 39.88 62.9099 39.91 62.8999C39.94 62.8899 39.96 62.8699 39.99 62.8599C40.02 62.8499 40.05 62.8299 40.07 62.8199C40.1 62.8099 40.13 62.7899 40.16 62.7799C40.19 62.7699 40.22 62.7499 40.25 62.7399C40.28 62.7299 40.31 62.7099 40.34 62.6999C40.37 62.6899 40.4 62.6699 40.43 62.6599C40.46 62.6499 40.49 62.6299 40.52 62.6199C40.55 62.6099 40.58 62.5899 40.61 62.5799C40.64 62.5699 40.67 62.5499 40.7 62.5399C40.73 62.5299 40.76 62.5199 40.79 62.4999C40.82 62.4899 40.85 62.4799 40.88 62.4599C40.91 62.4499 40.94 62.4399 40.97 62.4199C40.97 62.4199 41.03 62.3999 41.07 62.3899C41.1 62.3799 41.13 62.3699 41.17 62.3599C41.2 62.3499 41.23 62.3399 41.27 62.3299C41.3 62.3199 41.34 62.3099 41.37 62.2999C41.4 62.2899 41.44 62.2799 41.47 62.2699C41.5 62.2599 41.54 62.2499 41.57 62.2399C41.6 62.2399 41.64 62.2199 41.67 62.2099C41.7 62.2099 41.74 62.1899 41.77 62.1799C41.8 62.1799 41.84 62.1599 41.87 62.1499C41.9 62.1499 41.94 62.1299 41.97 62.1199C42.01 62.1199 42.04 62.0999 42.08 62.0899C42.12 62.0899 42.15 62.0699 42.19 62.0599C42.23 62.0599 42.26 62.0399 42.3 62.0399C42.34 62.0399 42.37 62.0199 42.41 62.0199C42.41 62.0199 42.48 61.9999 42.52 61.9999C42.56 61.9999 42.59 61.9899 42.63 61.9799C42.63 61.9799 42.7 61.9699 42.74 61.9599C42.78 61.9599 42.82 61.9499 42.85 61.9399C42.89 61.9399 42.93 61.9299 42.96 61.9199C43 61.9199 43.04 61.9099 43.08 61.8999C43.12 61.8999 43.16 61.8899 43.2 61.8799C43.24 61.8799 43.28 61.8699 43.32 61.8599C43.36 61.8599 43.4 61.8499 43.44 61.8399C43.48 61.8399 43.52 61.8299 43.56 61.8199C43.56 61.8199 43.64 61.8099 43.68 61.7999C43.72 61.7999 43.76 61.7999 43.8 61.7899C43.84 61.7899 43.88 61.7899 43.92 61.7799C43.96 61.7799 44 61.7799 44.04 61.7699C44.08 61.7699 44.12 61.7699 44.16 61.7599C44.2 61.7599 44.24 61.7599 44.29 61.7499C44.33 61.7499 44.37 61.7499 44.42 61.7399C44.46 61.7399 44.51 61.7399 44.55 61.7399C44.59 61.7399 44.64 61.7399 44.68 61.7399C44.72 61.7399 44.77 61.7399 44.81 61.7399C44.85 61.7399 44.9 61.7399 44.94 61.7399C44.98 61.7399 45.03 61.7399 45.07 61.7399C45.11 61.7399 45.16 61.7399 45.2 61.7399C45.24 61.7399 45.29 61.7399 45.33 61.7399C45.37 61.7399 45.42 61.7399 45.47 61.7399C45.52 61.7399 45.56 61.7399 45.61 61.7399C45.66 61.7399 45.7 61.7399 45.75 61.7399C45.8 61.7399 45.84 61.7399 45.89 61.7399C45.94 61.7399 45.98 61.7399 46.03 61.7399C46.08 61.7399 46.13 61.7399 46.18 61.7399C46.23 61.7399 46.28 61.7399 46.32 61.7399C46.37 61.7399 46.42 61.7399 46.46 61.7399C46.51 61.7399 46.55 61.7399 46.6 61.7399C46.65 61.7399 46.69 61.7399 46.74 61.7399C46.79 61.7399 46.83 61.7399 46.88 61.7399C46.93 61.7399 46.97 61.7399 47.02 61.7399C47.07 61.7399 47.11 61.7399 47.16 61.7399C47.21 61.7399 47.25 61.7399 47.3 61.7399C47.35 61.7399 47.39 61.7399 47.44 61.7399C47.49 61.7399 47.53 61.7399 47.57 61.7399C47.61 61.7399 47.66 61.7399 47.7 61.7499C47.74 61.7499 47.79 61.7499 47.83 61.7599C47.87 61.7599 47.92 61.7599 47.96 61.7699C48 61.7699 48.05 61.7699 48.09 61.7799C48.13 61.7799 48.18 61.7799 48.22 61.7899C48.26 61.7899 48.31 61.7999 48.35 61.8099C48.35 61.8099 48.43 61.8199 48.48 61.8299C48.48 61.8299 48.56 61.8399 48.61 61.8499C48.65 61.8499 48.69 61.8599 48.73 61.8699C48.77 61.8699 48.81 61.8799 48.85 61.8899C48.89 61.8899 48.93 61.8999 48.97 61.9099C49.01 61.9099 49.05 61.9199 49.09 61.9299C49.17 61.9399 49.25 61.9599 49.33 61.9799C49.37 61.9799 49.41 61.9999 49.45 61.9999C49.57 62.0199 49.68 62.0499 49.8 62.0799C49.84 62.0799 49.88 62.0999 49.91 62.1099C50.02 62.1399 50.13 62.1699 50.24 62.1999C50.28 62.2099 50.31 62.2199 50.35 62.2299C50.46 62.2599 50.57 62.2899 50.67 62.3299C50.74 62.3499 50.81 62.3799 50.88 62.3999C51.05 62.4599 51.22 62.5299 51.38 62.5899C51.44 62.6199 51.51 62.6499 51.57 62.6699C51.6 62.6799 51.63 62.6999 51.66 62.7099C51.69 62.7199 51.72 62.7399 51.75 62.7499C51.78 62.7599 51.81 62.7799 51.84 62.7999C51.84 62.7999 51.9 62.8299 51.93 62.8499C51.96 62.8699 51.99 62.8799 52.02 62.8999C52.02 62.8999 52.08 62.9299 52.11 62.9499C52.14 62.9699 52.17 62.9799 52.2 62.9999C52.2 62.9999 52.26 63.0299 52.29 63.0499C52.32 63.0699 52.35 63.0799 52.38 63.0999C52.41 63.1199 52.44 63.1299 52.46 63.1499C52.49 63.1699 52.52 63.1899 52.54 63.1999C52.57 63.2199 52.6 63.2399 52.62 63.2499C52.62 63.2499 52.67 63.2899 52.7 63.3099C52.73 63.3299 52.75 63.3499 52.78 63.3699C52.81 63.3899 52.83 63.4099 52.86 63.4299C52.89 63.4499 52.91 63.4699 52.94 63.4899C52.97 63.5099 52.99 63.5299 53.02 63.5499C53.05 63.5699 53.07 63.5899 53.1 63.6099V63.7999L50.03 66.2199H49.88C49.61 66.0099 49.32 65.8299 49.02 65.6699C48.99 65.6499 48.96 65.6399 48.92 65.6199L48.87 65.5999H48.85L48.8 65.5699H48.78L48.76 65.5499C48.74 65.5499 48.73 65.5399 48.71 65.5299C48.69 65.5299 48.68 65.5199 48.66 65.5099H48.64V65.4999H48.62V65.4899H48.6L48.58 65.4699H48.55L48.52 65.4499H48.49H48.46L48.43 65.4299H48.4L48.37 65.4099H48.34L48.31 65.3899H48.28L48.25 65.3699H48.22L48.19 65.3499H48.16L48.13 65.3299H48.1L48.07 65.3099H48.04L48.01 65.2899H47.98L47.95 65.2799H47.92L47.89 65.2699H47.86L47.83 65.2599H47.8H47.77L47.74 65.2499H47.71L47.68 65.2399H47.64H47.6L47.56 65.2299H47.52L47.48 65.2199H47.44L47.4 65.2099H47.36H47.32H47.28H47.24H47.2H47.16H47.12H47.08H47.04H47H46.96H46.92H46.88H46.84H46.8H46.76H46.72H46.68H46.64H46.6H46.56H46.52H46.48H46.43H46.38H46.33H46.28H46.23H46.18H46.13H46.08H46.03H45.98H45.9H45.83H45.76H45.69H45.62H45.55H45.48H45.41H45.34H45.27H45.2H45.13H45.06H44.99L44.92 65.2199H44.86L44.8 65.2299H44.74L44.68 65.2499H44.62L44.56 65.2699H44.5L44.44 65.2899H44.38L44.32 65.3099H44.26V65.3199H44.2V65.3299H44.14C44.14 65.3299 44.1 65.3499 44.08 65.3499H44.03L43.98 65.3799H43.93L43.88 65.4099H43.83V65.4199H43.78L43.73 65.4499L43.68 65.4699C43.68 65.4699 43.65 65.4799 43.63 65.4899C43.61 65.4899 43.6 65.4999 43.58 65.5099C43.58 65.5099 43.55 65.5199 43.53 65.5299C43.51 65.5299 43.5 65.5399 43.48 65.5499C43.46 65.5499 43.45 65.5599 43.43 65.5699L43.38 65.5899C43.38 65.5899 43.35 65.5999 43.34 65.6099L43.3 65.6299C43.3 65.6299 43.27 65.6399 43.26 65.6499L43.22 65.6699C43.22 65.6699 43.19 65.6799 43.18 65.6899L43.14 65.7099L43.1 65.7299C43.1 65.7299 43.07 65.7399 43.06 65.7499L43.02 65.7699C43.02 65.7699 42.99 65.7799 42.98 65.7899L42.94 65.8099C42.94 65.8099 42.92 65.8299 42.9 65.8299L42.86 65.8499C42.86 65.8499 42.84 65.8699 42.82 65.8699C42.81 65.8699 42.8 65.8899 42.78 65.8899C42.77 65.8899 42.76 65.9099 42.75 65.9099C42.74 65.9099 42.73 65.9299 42.72 65.9399C42.71 65.9399 42.7 65.9599 42.69 65.9699C42.68 65.9699 42.67 65.9899 42.66 65.9999C42.65 65.9999 42.64 66.0199 42.63 66.0299C42.62 66.0299 42.61 66.0499 42.6 66.0599L42.57 66.0899L42.54 66.1199L42.51 66.1499L42.48 66.1799C42.48 66.1799 42.46 66.1999 42.45 66.2099L42.42 66.2399C42.42 66.2399 42.4 66.2599 42.39 66.2699C42.39 66.2799 42.37 66.2899 42.36 66.2999L42.33 66.3299C42.33 66.3299 42.31 66.3499 42.3 66.3599C42.3 66.3699 42.28 66.3799 42.27 66.3899C42.25 66.4099 42.24 66.4299 42.22 66.4499L42.2 66.4799C42.2 66.4799 42.17 66.5199 42.15 66.5499L42.13 66.5799L42.11 66.6099L42.09 66.6499C42.09 66.6499 42.06 66.6999 42.05 66.7199C42.05 66.7299 42.04 66.7399 42.03 66.7599L42.01 66.7999L41.99 66.8399L41.97 66.8799L41.95 66.9199L41.93 66.9599C41.93 66.9599 41.92 66.9899 41.91 66.9999L41.89 67.0399L41.87 67.0799L41.85 67.1199C41.85 67.1199 41.84 67.1499 41.83 67.1599L41.81 67.1999V67.2399L41.78 67.2799V67.3199L41.75 67.3599V67.3999L41.73 67.4399V67.4799L41.71 67.5199V67.5699L41.69 67.6199V67.6699V67.7199V67.7699L41.67 67.8199V67.8699L41.65 67.9199V67.9699L41.64 68.0199V68.0699L41.63 68.1199V68.1699V68.2199V68.2699V68.3199V68.3699V68.4199V68.4699V68.5199V68.5699V68.6199V68.6699V68.6999V68.7299V68.7599V68.7899V68.8199V68.8499V68.8799V68.9099V68.9399V68.9699V68.9999V69.0299V69.0599V69.0899V69.1199V69.1499V69.1799V69.2099V69.2399V69.2699V69.2999V69.3299V69.3599V69.3899V69.4199V69.4499V69.4799V69.5099V69.5399V69.5699V69.5999V69.6299V69.6599V69.6899V69.7199V69.7399V69.7599V69.7799V69.7999V69.8199V69.8399V69.8599V69.8799V69.8999V69.9199V69.9399V69.9599V69.9799V69.9999V70.0199V70.0399V70.0599V70.0799V70.0999V70.1199V70.1399V70.1599V70.1799V70.1999V70.2199V70.2399V70.2599V70.2799V70.2999V70.3199V70.3399V70.3599V70.3799L41.64 70.3999V70.4199V70.4399V70.4599L41.65 70.4799V70.4999L41.66 70.5199V70.5399V70.5599V70.5799L41.67 70.5999V70.6199L41.68 70.6399V70.6599L41.69 70.6799V70.6999L41.71 70.7199V70.7399L41.73 70.7599V70.7799L41.75 70.7999V70.8199L41.77 70.8399V70.8599L41.79 70.8799V70.8999L41.81 70.9199V70.9399L41.83 70.9599V70.9799L41.85 70.9999V71.0199L41.87 71.0399V71.0599L41.89 71.0799V71.0999L41.91 71.1199V71.1399L41.93 71.1599V71.1799L41.95 71.1999V71.2199L41.97 71.2399V71.2599L41.99 71.2799V71.2999L42.01 71.3199V71.3399L42.03 71.3599V71.3799L42.06 71.3999V71.4199L42.09 71.4399V71.4599L42.12 71.4799V71.4999L42.15 71.5199V71.5399L42.18 71.5599V71.5799L42.21 71.5999V71.6199L42.24 71.6399L42.26 71.6599V71.6799L42.29 71.6899H42.31L42.33 71.7199H42.35C42.35 71.7199 42.38 71.7599 42.4 71.7799H42.42L42.44 71.8099C42.51 71.8599 42.58 71.9099 42.66 71.9599H42.68L42.7 71.9799H42.72L42.74 71.9999H42.76L42.78 72.0199H42.8L42.82 72.0399H42.84V72.0499H42.86L42.88 72.0699H42.9H42.92L42.94 72.0899H42.96L42.98 72.1099H43L43.02 72.1299H43.04L43.06 72.1499H43.08L43.1 72.1699H43.12L43.14 72.1899H43.16L43.18 72.2099H43.2L43.22 72.2299H43.25L43.28 72.2499H43.31L43.34 72.2599H43.37L43.4 72.2699H43.43L43.46 72.2799H43.49L43.52 72.2899C44.09 72.4399 44.84 72.4999 45.76 72.4999C47.08 72.4999 48.01 72.3899 48.57 72.1199C49.13 71.8499 49.42 71.5399 49.42 70.8999V70.7999L49.3 70.6799H45.26L45.15 70.5699L45.13 67.6499L45.25 67.5299H53.45L53.57 67.6499V70.0099C53.57 71.9899 52.93 73.4199 51.64 74.3199C50.35 75.2199 48.58 75.6699 45.53 75.6699L45.51 75.6899C44.83 75.6899 44.19 75.6699 43.6 75.6199H43.54H43.48C43.44 75.6199 43.4 75.6199 43.37 75.6199H43.31L43.25 75.6099H43.19L43.13 75.5999H43.07L43.02 75.5899H42.97L42.92 75.5799H42.87L42.82 75.5699H42.77L42.72 75.5599H42.67L42.62 75.5499H42.52L42.72 75.3199ZM75.82 61.8999L75.88 61.8399L75.94 61.7799H89.24L89.36 61.8999V65.0299L89.24 65.1499H80.65L80.53 65.2699V66.6499L80.65 66.7699H88.91L89.02 66.8899V69.8999L88.91 70.0099H80.65L80.53 70.1299V71.7599L80.65 71.8699H89.23L89.35 71.9899V75.3899L89.23 75.5099H75.93L75.82 75.3699V61.8799V61.8999ZM94.65 67.4999C94.65 67.4999 94.64 67.4599 94.63 67.4499L94.65 67.4999ZM94.67 67.5499C94.67 67.5499 94.66 67.5199 94.65 67.4999L94.67 67.5499ZM95.54 68.6999L95.52 68.6799L95.5 68.6599L95.48 68.6399L95.46 68.6199L95.55 68.6899L95.54 68.6999ZM96.74 71.4699C96.8 71.4899 96.86 71.5199 96.91 71.5399L96.74 71.4699ZM95.45 68.6299C95.45 68.6299 95.41 68.5899 95.38 68.5699L95.36 68.5499C95.14 68.3499 94.96 68.1299 94.83 67.8899C94.77 67.7799 94.72 67.6699 94.67 67.5499C94.67 67.5499 94.66 67.5199 94.65 67.4999C94.65 67.4799 94.64 67.4599 94.63 67.4499V67.4199V67.3899V67.3599V67.3299V67.2999L94.61 67.2699V67.2399L94.59 67.2099V67.1799V67.1499V67.1199L94.58 67.0899V67.0599V67.0299L94.57 66.9999V66.9699L94.56 66.9399V66.9099L94.55 66.8799V66.8499L94.54 66.8199V66.7899V66.7599V66.7299V66.6999V66.6699V66.6399V66.6099V66.5799V66.5499V66.5199V66.4899V66.4599V66.4299V66.3999V66.3699V66.3399V66.3099V66.2799V66.2499V66.2199V66.1899V66.1599V66.1299V66.0999V66.0699C94.54 66.0499 94.54 66.0199 94.54 65.9999C94.54 65.9799 94.54 65.9499 94.54 65.9299C94.54 65.9099 94.54 65.8799 94.54 65.8599C94.54 65.8399 94.54 65.8099 94.54 65.7899C94.54 65.7699 94.54 65.7399 94.54 65.7199C94.54 65.6999 94.54 65.6699 94.54 65.6499C94.54 65.6299 94.54 65.5999 94.54 65.5799C94.54 65.5599 94.54 65.5299 94.54 65.5099C94.54 65.4899 94.54 65.4599 94.54 65.4399C94.54 65.4199 94.54 65.3999 94.54 65.3699C94.54 65.3499 94.54 65.3299 94.54 65.2999C94.54 65.2799 94.54 65.2599 94.55 65.2299C94.55 65.2099 94.55 65.1899 94.56 65.1699C94.56 65.1499 94.56 65.1299 94.57 65.1099C94.57 65.0899 94.57 65.0699 94.58 65.0499C94.58 65.0299 94.58 65.0099 94.59 64.9899C94.59 64.9699 94.59 64.9499 94.6 64.9299C94.6 64.9099 94.6 64.8899 94.62 64.8699C94.62 64.8699 94.63 64.8299 94.64 64.8099C94.64 64.7899 94.65 64.7699 94.66 64.7499C94.66 64.7299 94.67 64.7099 94.68 64.6899C94.68 64.6699 94.69 64.6499 94.7 64.6299C94.7 64.6099 94.71 64.5899 94.72 64.5699C94.72 64.5499 94.73 64.5299 94.74 64.5099C94.74 64.4899 94.75 64.4699 94.76 64.4499C94.76 64.4299 94.77 64.4099 94.78 64.3899C94.78 64.3699 94.8 64.3499 94.8 64.3299C94.82 64.2899 94.83 64.2599 94.85 64.2199C94.85 64.1999 94.87 64.1799 94.88 64.1699C94.94 64.0499 95.01 63.9299 95.08 63.8199C95.14 63.7199 95.21 63.6299 95.29 63.5399C95.35 63.4699 95.42 63.3999 95.49 63.3299C95.5 63.3199 95.52 63.2999 95.53 63.2899C95.62 63.2099 95.71 63.1299 95.8 63.0599C95.82 63.0499 95.83 63.0399 95.85 63.0199C95.87 63.0099 95.88 62.9999 95.9 62.9799C95.92 62.9699 95.93 62.9599 95.95 62.9499C95.97 62.9399 95.98 62.9299 96 62.9199C96.02 62.9099 96.03 62.8999 96.05 62.8899C96.07 62.8799 96.08 62.8699 96.1 62.8599C96.12 62.8499 96.14 62.8399 96.15 62.8299C96.17 62.8199 96.19 62.8099 96.2 62.7999C96.22 62.7899 96.24 62.7799 96.25 62.7699C97.43 62.1299 99.34 61.8099 101.96 61.8099C104.98 61.8099 107.38 62.2399 109.16 63.1099L109.19 63.2999L106.8 66.0099L106.66 66.0299C106.58 65.9899 106.5 65.9499 106.41 65.9099H106.38L106.35 65.8899H106.32L106.29 65.8699H106.26L106.23 65.8499H106.2L106.17 65.8299H106.14L106.11 65.8099H106.08L106.05 65.7899H106.02L105.99 65.7699L105.96 65.7599H105.93L105.9 65.7399H105.87L105.84 65.7199H105.81L105.78 65.6999H105.75L105.72 65.6799H105.69L105.66 65.6599H105.63L105.6 65.6399L105.57 65.6299H105.54L105.51 65.6099H105.48L105.44 65.5899H105.4L105.36 65.5699H105.32L105.28 65.5499H105.24L105.2 65.5299H105.16L105.12 65.5099H105.08L105.04 65.4899H105L104.96 65.4699H104.92L104.88 65.4499H104.84L104.8 65.4299H104.76L104.72 65.4099H104.68L104.64 65.3899H104.6L104.56 65.3699C103.64 65.1699 102.75 65.0599 101.9 65.0599H101.79H101.74H101.69H101.64H101.59H101.54H101.49H101.44H101.39H101.34H101.29H101.24H101.19H101.14H101.1H101.06H101.02H100.98H100.94H100.9H100.86H100.82H100.78H100.74H100.7H100.66H100.62H100.58H100.54H100.5H100.46H100.43H100.4H100.37H100.34H100.31H100.28H100.25H100.22H100.19H100.16H100.13H100.1H100.07H100.04H100.01H99.98H99.95H99.93H99.91H99.89L99.87 65.0699H99.85L99.83 65.0799H99.81L99.79 65.0899H99.77L99.75 65.0999H99.73L99.71 65.1099H99.69L99.67 65.1199H99.65C99.31 65.2699 99.14 65.5099 99.14 65.8499V65.8699V65.8899V65.9099V65.9299V65.9499V65.9699V65.9899V66.0099V66.0299V66.0499V66.0699L99.15 66.0899V66.1199V66.1499V66.1799V66.2099L99.16 66.2199H99.17L99.18 66.2499L99.19 66.2599H99.2L99.21 66.2899H99.22L99.23 66.3199H99.24C99.24 66.3199 99.26 66.3499 99.27 66.3599C99.35 66.4299 99.45 66.4799 99.58 66.5399C99.6 66.5399 99.61 66.5499 99.63 66.5599C99.65 66.5599 99.66 66.5699 99.68 66.5799H99.71L99.74 66.5999H99.77C99.8 66.5999 99.82 66.6199 99.85 66.6299H99.88L99.91 66.6499H99.94L99.97 66.6699H100L100.03 66.6899H100.06L100.08 66.6999H100.1H100.12H100.14H100.16H100.18H100.2H100.23H100.26H100.29H100.32H100.35H100.38H100.41H100.44H100.47H100.5H100.53H100.56H100.59H100.62H100.66H100.7H100.74H100.78H100.82H100.86H100.9L100.94 66.7099H100.98L101.02 66.7199H101.06H101.1H101.14L101.18 66.7299H101.23H101.28H101.33H101.38C101.78 66.7799 102.25 66.8299 102.8 66.8899C103.17 66.9299 103.52 66.9699 103.84 66.9999H103.88H103.92H103.96H104H104.04H104.08H104.12H104.16H104.2H104.24H104.28H104.32H104.36H104.4H104.44H104.47H104.5H104.53H104.56H104.59H104.62H104.69L104.72 67.0099H104.75L104.85 67.0299C104.97 67.0499 105.08 67.0599 105.18 67.0799C105.29 67.0999 105.39 67.1199 105.5 67.1399L105.56 67.1499H105.59L105.65 67.1699H105.68L105.71 67.1799H105.74L105.77 67.1899H105.8L105.83 67.1999H105.86L105.89 67.2099H105.92H105.95H105.98L106.01 67.2199H106.04L106.07 67.2299H106.1L106.13 67.2399H106.16L106.19 67.2499H106.22L106.25 67.2599H106.28L106.31 67.2699H106.34L106.37 67.2899H106.4L106.43 67.3099H106.46L106.49 67.3299H106.52L106.55 67.3499H106.58L106.61 67.3699H106.64L106.67 67.3899H106.7L106.73 67.4099H106.76L106.79 67.4299H106.82L106.85 67.4499H106.88L106.91 67.4699H106.94L106.97 67.4899H107L107.03 67.5099H107.06L107.09 67.5299C107.73 67.7299 108.23 67.9599 108.58 68.2399C108.94 68.5199 109.23 68.8799 109.45 69.3199C109.67 69.7599 109.79 70.2799 109.79 70.8799C109.79 72.3299 109.21 73.4199 108.05 74.1499C106.89 74.8799 104.84 75.2399 101.91 75.2399V75.2599C100.03 75.2599 98.37 75.0999 96.93 74.7899C96.76 74.7499 96.58 74.7099 96.42 74.6699C96.38 74.6599 96.34 74.6499 96.29 74.6399C96.21 74.6199 96.12 74.5999 96.04 74.5699C96 74.5599 95.96 74.5499 95.92 74.5299C95.84 74.5099 95.76 74.4799 95.68 74.4599C95.68 74.4599 95.6 74.4399 95.56 74.4199C95.52 74.4099 95.48 74.3899 95.44 74.3799C95.4 74.3699 95.36 74.3499 95.32 74.3399C95.28 74.3299 95.24 74.3099 95.21 74.2999C95.21 74.2999 95.13 74.2699 95.1 74.2599C95.06 74.2499 95.02 74.2299 94.99 74.2199C94.95 74.2099 94.92 74.1899 94.88 74.1799C94.84 74.1699 94.81 74.1499 94.77 74.1399C94.73 74.1299 94.7 74.1099 94.66 74.0999C94.62 74.0899 94.59 74.0699 94.55 74.0499C94.51 74.0299 94.48 74.0199 94.44 73.9999C94.4 73.9799 94.37 73.9699 94.33 73.9499C94.3 73.9299 94.26 73.9199 94.23 73.8999C94.2 73.8799 94.16 73.8699 94.13 73.8499C94.1 73.8299 94.06 73.8199 94.03 73.7999C94 73.7799 93.96 73.7699 93.93 73.7499C93.9 73.7299 93.86 73.7199 93.83 73.6999C93.8 73.6799 93.76 73.6699 93.73 73.6499C93.7 73.6299 93.66 73.6099 93.63 73.5999C93.6 73.5799 93.57 73.5599 93.53 73.5499C93.5 73.5299 93.47 73.5099 93.43 73.4899L93.41 73.3099L95.62 70.8099L96.44 71.1199C96.44 71.1199 96.5 71.1499 96.53 71.1599C96.56 71.1699 96.59 71.1899 96.62 71.1999C96.65 71.2099 96.68 71.2199 96.71 71.2399C96.77 71.2599 96.83 71.2899 96.88 71.3099C96.88 71.3099 96.94 71.3299 96.97 71.3399C97 71.3499 97.03 71.3599 97.06 71.3699C97.09 71.3799 97.12 71.3899 97.15 71.3999L97.24 71.4299L97.33 71.4599L97.42 71.4899C97.42 71.4899 97.48 71.5099 97.51 71.5199C97.54 71.5299 97.57 71.5399 97.6 71.5499C97.63 71.5499 97.66 71.5699 97.69 71.5799C97.72 71.5799 97.75 71.5999 97.78 71.6099C97.81 71.6099 97.84 71.6299 97.87 71.6399C97.9 71.6399 97.93 71.6599 97.96 71.6699C97.99 71.6699 98.02 71.6899 98.05 71.6999C98.08 71.7099 98.11 71.7199 98.14 71.7299C98.17 71.7299 98.2 71.7499 98.23 71.7599L98.32 71.7799C98.32 71.7799 98.38 71.7999 98.41 71.7999L98.5 71.8199C98.5 71.8199 98.56 71.8299 98.59 71.8399L98.68 71.8599C98.68 71.8599 98.74 71.8699 98.77 71.8799L98.86 71.8999C98.86 71.8999 98.92 71.9099 98.96 71.9199L99.06 71.9399L99.16 71.9599C99.16 71.9599 99.22 71.9699 99.26 71.9799L99.36 71.9999C99.36 71.9999 99.42 72.0099 99.46 72.0199C99.49 72.0199 99.52 72.0299 99.56 72.0399H99.66C99.66 72.0399 99.72 72.0599 99.76 72.0699C99.79 72.0699 99.83 72.0699 99.86 72.0799C99.89 72.0799 99.93 72.0799 99.96 72.0899H100.06L100.16 72.1099C100.19 72.1099 100.23 72.1099 100.26 72.1199C100.29 72.1199 100.33 72.1199 100.36 72.1299C100.39 72.1299 100.43 72.1299 100.46 72.1299H100.56L100.66 72.1499C100.69 72.1499 100.73 72.1499 100.76 72.1499H100.86C100.86 72.1499 100.93 72.1599 100.96 72.1599H101.06C101.06 72.1599 101.13 72.1599 101.16 72.1599C101.19 72.1599 101.23 72.1599 101.26 72.1599C101.29 72.1599 101.33 72.1599 101.36 72.1599H101.46C101.46 72.1599 101.53 72.1599 101.56 72.1599H101.66H101.76C102.79 72.1599 103.56 72.1099 104.04 72.0199C104.53 71.9299 104.83 71.8199 104.94 71.6899C105.05 71.5599 105.1 71.3499 105.1 71.0599C105.1 70.7499 104.85 70.5299 104.35 70.3899C103.85 70.2499 102.93 70.1299 101.59 69.9999H101.53L101.47 69.9899H101.41L101.35 69.9799H101.29L101.23 69.9699H101.17L101.11 69.9599H101.05L100.99 69.9499H100.93L100.87 69.9399H100.81L100.75 69.9299H100.69L100.63 69.9199H100.57H100.51L100.45 69.9099H100.39L100.34 69.8999H100.29L100.24 69.8899H100.19L100.14 69.8799H100.09L100.04 69.8699H99.99L99.94 69.8599H99.89L99.84 69.8499H99.79L99.74 69.8399H99.69L99.64 69.8299H99.59H99.54L99.49 69.8199H99.44L99.39 69.8099H99.34L99.29 69.7999H99.24L99.19 69.7899H99.14L99.09 69.7799H99.04L99 69.7699H98.96L98.92 69.7599H98.88L98.84 69.7499H98.8L98.76 69.7399H98.72L98.68 69.7299H98.64L98.6 69.7099H98.56L98.52 69.6899H98.48L98.44 69.6799H98.4L98.36 69.6599C97.53 69.4999 96.78 69.2499 96.15 68.9399H96.12L96.09 68.9099H96.06L96.03 68.8799H96L95.97 68.8499L95.94 68.8299L95.91 68.8099L95.88 68.7899L95.85 68.7699L95.82 68.7499L95.79 68.7299L95.76 68.7099L95.37 68.4299L95.45 68.6299ZM13.9 75.5199H10.14L10.03 75.3999V70.4399L9.91 70.3199H4.14L4.02 70.4399V75.3999L3.91 75.5199H0.12L0 75.3999V61.9099L0.11 61.7899H3.88L3.99 61.9099V66.8699L4.11 66.9799H9.88L10 66.8699V61.9199L10.11 61.7999H13.88L14 61.9199V75.4099L13.88 75.5299L13.9 75.5199Z" fill="#465F75"/>
<path fill-rule="evenodd" clip-rule="evenodd" d="M29.25 80.9399C29.25 81.2799 29.31 81.5399 29.43 81.7199C29.55 81.8999 29.73 81.9899 29.98 81.9899C30.23 81.9899 30.4 81.9099 30.52 81.7499C30.63 81.5899 30.7 81.3299 30.7 80.9899V80.3699C30.7 80.0199 30.65 79.7599 30.53 79.5799C30.41 79.3999 30.23 79.3199 29.98 79.3199C29.73 79.3199 29.56 79.4099 29.44 79.5799C29.32 79.7499 29.26 80.0099 29.25 80.3499V80.9499V80.9399ZM29.99 82.3799C29.64 82.3799 29.35 82.2599 29.15 82.0199C28.95 81.7799 28.84 81.4399 28.83 81.0099V80.3799C28.83 79.9299 28.93 79.5799 29.13 79.3399C29.33 79.0999 29.61 78.9599 29.98 78.9599C30.35 78.9599 30.62 79.0799 30.82 79.3199C31.02 79.5599 31.12 79.9099 31.13 80.3599V80.9699C31.13 81.4299 31.04 81.7799 30.84 82.0199C30.64 82.2599 30.36 82.3899 29.99 82.3899V82.3799ZM37.38 82.3799H36.95L35.58 79.7399V82.3799H35.15V78.9499H35.58L36.96 81.5999V78.9499H37.38V82.3799ZM42.47 82.3699C42.27 82.3699 42.09 82.3299 41.92 82.2399C41.75 82.1499 41.62 82.0399 41.52 81.8799C41.42 81.7199 41.37 81.5499 41.37 81.3499H41.8C41.8 81.5499 41.86 81.7199 41.98 81.8299C42.1 81.9399 42.26 81.9999 42.46 81.9999C42.65 81.9999 42.79 81.9499 42.89 81.8599C42.99 81.7699 43.04 81.6299 43.04 81.4699V81.4899C43.04 81.3299 43 81.1999 42.91 81.1099C42.82 81.0199 42.65 80.9399 42.4 80.8499C42.15 80.7599 41.98 80.6799 41.84 80.5899C41.71 80.4999 41.62 80.3899 41.55 80.2699C41.48 80.1499 41.45 80.0199 41.45 79.8599C41.45 79.5999 41.54 79.3799 41.72 79.2099C41.9 79.0399 42.14 78.9599 42.43 78.9599C42.63 78.9599 42.81 78.9999 42.97 79.0899C43.13 79.1799 43.25 79.2999 43.33 79.4599C43.41 79.6099 43.46 79.7899 43.46 79.9699H43.03C43.03 79.7699 42.98 79.5999 42.87 79.4899C42.76 79.3799 42.63 79.3199 42.43 79.3199C42.26 79.3199 42.12 79.3699 42.02 79.4599C41.92 79.5499 41.87 79.6899 41.87 79.8599C41.87 79.9999 41.92 80.1199 42.03 80.2099C42.14 80.2999 42.29 80.3899 42.51 80.4599C42.84 80.5699 43.09 80.6999 43.24 80.8599C43.39 81.0199 43.46 81.2299 43.46 81.4799C43.46 81.7499 43.37 81.9699 43.19 82.1299C43.01 82.2899 42.77 82.3699 42.46 82.3699H42.47ZM48.83 82.3799H48.4V79.3199H47.5V78.9499H49.74V79.3199H48.83V82.3799ZM54.18 80.6199H54.7C54.88 80.6199 55.03 80.5599 55.13 80.4499C55.24 80.3399 55.29 80.1799 55.29 79.9799C55.29 79.5399 55.09 79.3199 54.69 79.3199H54.18V80.6199ZM55.86 82.3799H55.39L54.78 80.9899H54.18V82.3799H53.75V78.9499H54.71C55.04 78.9499 55.3 79.0399 55.48 79.2099C55.66 79.3799 55.74 79.6399 55.74 79.9799C55.74 80.1899 55.69 80.3799 55.6 80.5399C55.51 80.6999 55.37 80.8199 55.2 80.8999L55.86 82.3599V82.3799ZM60.91 82.3799C60.58 82.3799 60.31 82.2899 60.13 82.1099C59.95 81.9299 59.86 81.6799 59.86 81.3499V78.9399H60.28V81.3299C60.28 81.5599 60.33 81.7299 60.43 81.8399C60.53 81.9499 60.68 82.0099 60.9 82.0099C61.12 82.0099 61.28 81.9499 61.37 81.8399C61.47 81.7299 61.52 81.5499 61.52 81.3299V78.9399H61.96V81.3599C61.96 81.6799 61.86 81.9299 61.67 82.1099C61.48 82.2899 61.23 82.3799 60.89 82.3799H60.91ZM67.3 82.3799H66.87V79.3199H65.97V78.9499H68.21V79.3199H67.3V82.3799ZM72.64 80.9399C72.64 81.2799 72.7 81.5399 72.82 81.7199C72.94 81.8999 73.12 81.9899 73.37 81.9899C73.62 81.9899 73.79 81.9099 73.91 81.7499C74.02 81.5899 74.09 81.3299 74.09 80.9899V80.3699C74.09 80.0199 74.04 79.7599 73.92 79.5799C73.8 79.3999 73.62 79.3199 73.37 79.3199C73.12 79.3199 72.95 79.4099 72.83 79.5799C72.71 79.7499 72.65 80.0099 72.64 80.3499V80.9499V80.9399ZM73.37 82.3799C73.02 82.3799 72.73 82.2599 72.53 82.0199C72.33 81.7799 72.22 81.4399 72.21 81.0099V80.3799C72.21 79.9299 72.31 79.5799 72.51 79.3399C72.71 79.0999 72.99 78.9599 73.36 78.9599C73.73 78.9599 74 79.0799 74.2 79.3199C74.4 79.5599 74.5 79.9099 74.51 80.3599V80.9699C74.51 81.4299 74.42 81.7799 74.22 82.0199C74.02 82.2599 73.74 82.3899 73.37 82.3899V82.3799ZM78.96 80.6199H79.48C79.66 80.6199 79.81 80.5599 79.91 80.4499C80.02 80.3399 80.07 80.1799 80.07 79.9799C80.07 79.5399 79.87 79.3199 79.47 79.3199H78.96V80.6199ZM80.65 82.3799H80.18L79.57 80.9899H78.97V82.3799H78.54V78.9499H79.5C79.83 78.9499 80.09 79.0399 80.27 79.2099C80.45 79.3799 80.53 79.6399 80.53 79.9799C80.53 80.1899 80.48 80.3799 80.39 80.5399C80.3 80.6999 80.16 80.8199 79.99 80.8999L80.65 82.3599V82.3799ZM85.47 81.1099H86.41L85.94 79.5499L85.47 81.1099ZM87.23 82.3799H86.79L86.51 81.4799H85.35L85.08 82.3799H84.65L85.75 78.9399H86.12L87.23 82.3799ZM23.72 82.3799C23.39 82.3799 23.1 82.2499 22.9 81.9999C22.7 81.7499 22.6 81.3999 22.6 80.9599V80.3599C22.6 79.9299 22.71 79.5799 22.91 79.3299C23.11 79.0799 23.4 78.9499 23.76 78.9499C24.09 78.9499 24.35 79.0499 24.53 79.2399C24.71 79.4299 24.81 79.7099 24.82 80.0599H24.38C24.36 79.7899 24.31 79.5899 24.2 79.4799C24.09 79.3699 23.95 79.3099 23.74 79.3099C23.5 79.3099 23.32 79.3999 23.2 79.5799C23.08 79.7599 23.01 80.0199 23.01 80.3599V80.9699C23.01 81.2999 23.07 81.5699 23.18 81.7499C23.29 81.9299 23.47 82.0199 23.69 82.0199C23.91 82.0199 24.07 81.9599 24.17 81.8599C24.27 81.7499 24.33 81.5599 24.35 81.2699H24.82C24.8 81.6299 24.7 81.8999 24.51 82.0899C24.32 82.2899 24.05 82.3799 23.72 82.3799Z" fill="#8C6B4F"/>
<path fill-rule="evenodd" clip-rule="evenodd" d="M67.77 8.86V22.89L67.9 23L75.55 22.04L75.65 21.93V15.99L75.76 15.88L88.99 14.56L89.1 14.45V6.76L88.97 6.65L67.89 8.76L67.78 8.87L67.77 8.86ZM34.29 48.2H41.94L42.05 48.09V35.45L41.95 35.34L34.3 34.38L34.17 34.49V48.08L34.28 48.19L34.29 48.2ZM67.88 48.2H75.53L75.64 48.09V34.5L75.51 34.39L67.86 35.35L67.76 35.46V48.1L67.87 48.21L67.88 48.2ZM27.46 23.52V31.23L27.56 31.34L54.84 34.75H54.91L82.26 31.34L82.36 31.23V23.52L82.23 23.41L54.92 26.82H54.89L27.58 23.41L27.47 23.52H27.46ZM62.21 17.13V7.58L62.24 7.5L65.72 4.01V3.85L61.91 0.03L61.83 0H47.73L47.62 0.11V17.12L47.73 17.23L54.91 17.95H54.93L62.11 17.23L62.21 17.12V17.13ZM47.44 54.92H62.38C62.47 54.92 62.53 54.83 62.49 54.75L55.02 39.81C54.98 39.73 54.86 39.73 54.82 39.81L47.35 54.75C47.31 54.83 47.37 54.92 47.46 54.92H47.44ZM34.28 22.05L41.93 23.01L42.06 22.9V8.87L41.95 8.76L20.87 6.65L20.74 6.76V14.45L20.85 14.56L34.08 15.88L34.19 15.99V21.93L34.29 22.04L34.28 22.05Z" fill="#8C6B4F"/>
</g>
<defs>
<clipPath id="clip0_4036_624">
<rect width="109.82" height="82.38" fill="white"/>
</clipPath>
</defs>
</svg>
