<svg width="497" height="498" viewBox="0 0 497 498" fill="none" xmlns="http://www.w3.org/2000/svg">
<path fill-rule="evenodd" clip-rule="evenodd" d="M497 216.115C497 232.915 497 249.794 497 266.988C332.025 267.145 166.814 267.224 0.970005 267.382C-0.847244 250.346 0.0218797 233.231 2.47122 214.932C13.2957 219.822 23.8831 223.766 33.6805 229.129C81.8771 255.236 129.837 255.236 178.033 229.129C225.282 203.575 272.688 203.496 319.937 228.971C368.133 254.999 416.093 254.92 464.29 228.971C474.166 223.608 484.674 219.586 494.946 214.932C495.578 215.327 496.289 215.8 496.921 216.194M38.0261 115.632C44.347 107.193 50.8258 98.3595 57.6208 89.8413C58.4899 88.7371 61.6503 88.5794 63.4676 89.1315C97.4422 98.9905 130.785 97.4919 163.337 83.3738C174.32 78.6415 184.512 72.0163 195.653 67.6783C237.686 51.1152 279.009 53.5602 318.594 75.25C344.193 89.2892 371.136 96.8609 400.212 94.7314C411.905 93.8638 423.441 90.9456 434.976 88.5005C437.979 87.8695 439.796 87.9484 441.613 90.5512C447.697 98.9116 453.939 107.193 460.497 115.948C448.882 122.652 437.189 126.832 425.1 129.593C388.439 137.953 353.832 132.669 320.806 114.607C272.925 88.4216 224.887 88.7371 177.006 114.844C133.234 138.663 88.672 139.925 43.3988 119.339C41.9766 118.708 40.5544 117.92 39.2112 117.131C38.9742 116.973 38.8162 116.579 38.1051 115.554L38.0261 115.632ZM91.6744 56.5574C177.48 -17.3456 316.223 -20.2639 406.533 56.3208C393.496 57.5827 381.091 57.2672 368.765 55.2166C351.383 52.3772 335.265 45.9885 319.779 37.707C272.609 12.3891 225.361 12.2313 178.27 37.7859C152.355 51.9039 125.017 59.0024 95.4669 56.8729C94.3608 56.794 93.1756 56.6363 91.5954 56.4785L91.6744 56.5574ZM9.34515 179.046C13.3747 168.161 17.4043 157.513 21.6708 146.235C26.4115 148.759 30.441 150.809 34.3916 152.939C81.7981 178.493 129.442 178.888 176.848 153.176C225.045 127.148 273.004 127.148 321.28 153.097C368.765 178.651 416.33 178.257 463.736 152.545C467.608 150.494 471.48 148.443 476.378 145.84C480.566 157.04 484.674 167.767 488.783 178.572C479.697 183.068 470.926 187.09 462.393 191.586C415.303 216.51 368.054 216.746 321.28 191.192C286.831 172.42 250.802 166.82 212.877 176.758C201.262 179.834 189.806 184.645 179.218 190.324C130.469 216.746 82.0351 217.062 33.2854 190.561C25.7794 186.459 17.7993 183.068 9.26614 178.967L9.34515 179.046Z" fill="white"/>
<path fill-rule="evenodd" clip-rule="evenodd" d="M64.4157 415.74C106.449 426.467 145.323 420.551 182.221 399.098C194.942 391.684 208.927 387.267 223.464 384.744C257.755 378.749 290.15 384.034 320.49 401.149C343.561 414.163 368.291 421.182 394.839 420.236C407.797 419.763 420.597 417.239 433.159 415.661C427.866 421.025 421.782 426.861 416.014 433.013C411.194 438.14 405.742 439.717 398.711 439.717C297.735 439.56 196.68 439.717 95.704 439.875C91.6744 439.875 88.672 438.929 85.8276 436.089C78.7957 429.227 71.6057 422.523 64.4157 415.74ZM330.603 483.57C276.086 501.474 222.516 501.474 168.473 483.807C212.64 453.914 273.952 447.447 330.603 483.57ZM490.442 314.942C484.121 330.164 477.879 345.386 471.4 360.53C470.926 361.713 468.793 362.659 467.371 362.896C465.001 363.29 462.472 362.975 459.944 362.975C318.277 363.054 176.69 363.133 35.0237 363.448C29.8879 363.448 27.0436 362.186 25.1473 357.217C19.6956 343.178 13.8488 329.218 8.15997 315.257C8.63404 314.863 9.1081 314.469 9.50316 313.995C11.2414 314.469 13.0586 314.784 14.6389 315.494C22.1449 319.043 29.6509 322.514 36.9989 326.299C83.3783 350.276 129.837 350.671 175.742 325.826C224.887 299.246 273.399 299.167 322.544 325.668C368.686 350.513 415.303 350.119 461.761 325.826C470.452 321.252 479.381 317.229 488.151 312.97C488.862 313.601 489.652 314.311 490.363 314.942H490.442Z" fill="white"/>
</svg>
